<svg width="213" height="151" fill="none" xmlns="http://www.w3.org/2000/svg"><ellipse cx="1.773" cy="1.845" rx="1.773" ry="1.739" fill="#EBEBEB"/><ellipse cx="12.755" cy="1.845" rx="1.773" ry="1.739" fill="#EBEBEB"/><ellipse cx="23.737" cy="1.845" rx="1.773" ry="1.739" fill="#EBEBEB"/><ellipse cx="34.72" cy="1.845" rx="1.773" ry="1.739" fill="#EBEBEB"/><ellipse cx="45.702" cy="1.845" rx="1.773" ry="1.739" fill="#EBEBEB"/><ellipse cx="56.684" cy="1.845" rx="1.773" ry="1.739" fill="#EBEBEB"/><ellipse cx="67.667" cy="1.845" rx="1.773" ry="1.739" fill="#EBEBEB"/><ellipse cx="78.649" cy="1.845" rx="1.773" ry="1.739" fill="#EBEBEB"/><ellipse cx="89.631" cy="1.845" rx="1.773" ry="1.739" fill="#EBEBEB"/><ellipse cx="100.613" cy="1.845" rx="1.773" ry="1.739" fill="#EBEBEB"/><ellipse cx="111.596" cy="1.845" rx="1.773" ry="1.739" fill="#EBEBEB"/><ellipse cx="122.578" cy="1.845" rx="1.773" ry="1.739" fill="#EBEBEB"/><ellipse cx="133.56" cy="1.845" rx="1.773" ry="1.739" fill="#EBEBEB"/><ellipse cx="144.543" cy="1.845" rx="1.773" ry="1.739" fill="#EBEBEB"/><ellipse cx="155.525" cy="1.845" rx="1.773" ry="1.739" fill="#EBEBEB"/><ellipse cx="166.507" cy="1.845" rx="1.773" ry="1.739" fill="#EBEBEB"/><ellipse cx="177.489" cy="1.845" rx="1.773" ry="1.739" fill="#EBEBEB"/><ellipse cx="188.472" cy="1.845" rx="1.773" ry="1.739" fill="#EBEBEB"/><ellipse cx="199.454" cy="1.845" rx="1.773" ry="1.739" fill="#EBEBEB"/><ellipse cx="210.436" cy="1.845" rx="1.773" ry="1.739" fill="#EBEBEB"/><ellipse cx="1.773" cy="11.641" rx="1.773" ry="1.739" fill="#EBEBEB"/><ellipse cx="12.755" cy="11.641" rx="1.773" ry="1.739" fill="#EBEBEB"/><ellipse cx="23.737" cy="11.641" rx="1.773" ry="1.739" fill="#EBEBEB"/><ellipse cx="34.72" cy="11.641" rx="1.773" ry="1.739" fill="#EBEBEB"/><ellipse cx="45.702" cy="11.641" rx="1.773" ry="1.739" fill="#EBEBEB"/><ellipse cx="56.684" cy="11.641" rx="1.773" ry="1.739" fill="#EBEBEB"/><ellipse cx="67.667" cy="11.641" rx="1.773" ry="1.739" fill="#EBEBEB"/><ellipse cx="78.649" cy="11.641" rx="1.773" ry="1.739" fill="#EBEBEB"/><ellipse cx="89.631" cy="11.641" rx="1.773" ry="1.739" fill="#EBEBEB"/><ellipse cx="100.613" cy="11.641" rx="1.773" ry="1.739" fill="#EBEBEB"/><ellipse cx="111.596" cy="11.641" rx="1.773" ry="1.739" fill="#EBEBEB"/><ellipse cx="122.578" cy="11.641" rx="1.773" ry="1.739" fill="#EBEBEB"/><ellipse cx="133.56" cy="11.641" rx="1.773" ry="1.739" fill="#EBEBEB"/><ellipse cx="144.543" cy="11.641" rx="1.773" ry="1.739" fill="#EBEBEB"/><ellipse cx="155.525" cy="11.641" rx="1.773" ry="1.739" fill="#EBEBEB"/><ellipse cx="166.507" cy="11.641" rx="1.773" ry="1.739" fill="#EBEBEB"/><ellipse cx="177.489" cy="11.641" rx="1.773" ry="1.739" fill="#EBEBEB"/><ellipse cx="188.472" cy="11.641" rx="1.773" ry="1.739" fill="#EBEBEB"/><ellipse cx="199.454" cy="11.641" rx="1.773" ry="1.739" fill="#EBEBEB"/><ellipse cx="210.436" cy="11.641" rx="1.773" ry="1.739" fill="#EBEBEB"/><ellipse cx="1.773" cy="21.437" rx="1.773" ry="1.739" fill="#EBEBEB"/><ellipse cx="12.755" cy="21.437" rx="1.773" ry="1.739" fill="#EBEBEB"/><ellipse cx="23.737" cy="21.437" rx="1.773" ry="1.739" fill="#EBEBEB"/><ellipse cx="34.72" cy="21.437" rx="1.773" ry="1.739" fill="#EBEBEB"/><ellipse cx="45.702" cy="21.437" rx="1.773" ry="1.739" fill="#EBEBEB"/><ellipse cx="56.684" cy="21.437" rx="1.773" ry="1.739" fill="#EBEBEB"/><ellipse cx="67.667" cy="21.437" rx="1.773" ry="1.739" fill="#EBEBEB"/><ellipse cx="78.649" cy="21.437" rx="1.773" ry="1.739" fill="#EBEBEB"/><ellipse cx="89.631" cy="21.437" rx="1.773" ry="1.739" fill="#EBEBEB"/><ellipse cx="100.613" cy="21.437" rx="1.773" ry="1.739" fill="#EBEBEB"/><ellipse cx="111.596" cy="21.437" rx="1.773" ry="1.739" fill="#EBEBEB"/><ellipse cx="122.578" cy="21.437" rx="1.773" ry="1.739" fill="#EBEBEB"/><ellipse cx="133.56" cy="21.437" rx="1.773" ry="1.739" fill="#EBEBEB"/><ellipse cx="144.543" cy="21.437" rx="1.773" ry="1.739" fill="#EBEBEB"/><ellipse cx="155.525" cy="21.437" rx="1.773" ry="1.739" fill="#EBEBEB"/><ellipse cx="166.507" cy="21.437" rx="1.773" ry="1.739" fill="#EBEBEB"/><ellipse cx="177.489" cy="21.437" rx="1.773" ry="1.739" fill="#EBEBEB"/><ellipse cx="188.472" cy="21.437" rx="1.773" ry="1.739" fill="#EBEBEB"/><ellipse cx="199.454" cy="21.437" rx="1.773" ry="1.739" fill="#EBEBEB"/><ellipse cx="210.436" cy="21.437" rx="1.773" ry="1.739" fill="#EBEBEB"/><ellipse cx="1.773" cy="31.233" rx="1.773" ry="1.739" fill="#EBEBEB"/><ellipse cx="12.755" cy="31.233" rx="1.773" ry="1.739" fill="#EBEBEB"/><ellipse cx="23.737" cy="31.233" rx="1.773" ry="1.739" fill="#EBEBEB"/><ellipse cx="34.72" cy="31.233" rx="1.773" ry="1.739" fill="#EBEBEB"/><ellipse cx="45.702" cy="31.233" rx="1.773" ry="1.739" fill="#EBEBEB"/><ellipse cx="56.684" cy="31.233" rx="1.773" ry="1.739" fill="#EBEBEB"/><ellipse cx="67.667" cy="31.233" rx="1.773" ry="1.739" fill="#EBEBEB"/><ellipse cx="78.649" cy="31.233" rx="1.773" ry="1.739" fill="#EBEBEB"/><ellipse cx="89.631" cy="31.233" rx="1.773" ry="1.739" fill="#EBEBEB"/><ellipse cx="100.613" cy="31.233" rx="1.773" ry="1.739" fill="#EBEBEB"/><ellipse cx="111.596" cy="31.233" rx="1.773" ry="1.739" fill="#EBEBEB"/><ellipse cx="122.578" cy="31.233" rx="1.773" ry="1.739" fill="#EBEBEB"/><ellipse cx="133.56" cy="31.233" rx="1.773" ry="1.739" fill="#EBEBEB"/><ellipse cx="144.543" cy="31.233" rx="1.773" ry="1.739" fill="#EBEBEB"/><ellipse cx="155.525" cy="31.233" rx="1.773" ry="1.739" fill="#EBEBEB"/><ellipse cx="166.507" cy="31.233" rx="1.773" ry="1.739" fill="#EBEBEB"/><ellipse cx="177.489" cy="31.233" rx="1.773" ry="1.739" fill="#EBEBEB"/><ellipse cx="188.472" cy="31.233" rx="1.773" ry="1.739" fill="#EBEBEB"/><ellipse cx="199.454" cy="31.233" rx="1.773" ry="1.739" fill="#EBEBEB"/><ellipse cx="210.436" cy="31.233" rx="1.773" ry="1.739" fill="#EBEBEB"/><ellipse cx="1.773" cy="41.029" rx="1.773" ry="1.739" fill="#EBEBEB"/><ellipse cx="12.755" cy="41.029" rx="1.773" ry="1.739" fill="#EBEBEB"/><ellipse cx="23.737" cy="41.029" rx="1.773" ry="1.739" fill="#EBEBEB"/><ellipse cx="34.72" cy="41.029" rx="1.773" ry="1.739" fill="#EBEBEB"/><ellipse cx="45.702" cy="41.029" rx="1.773" ry="1.739" fill="#EBEBEB"/><ellipse cx="56.684" cy="41.029" rx="1.773" ry="1.739" fill="#EBEBEB"/><ellipse cx="67.667" cy="41.029" rx="1.773" ry="1.739" fill="#EBEBEB"/><ellipse cx="78.649" cy="41.029" rx="1.773" ry="1.739" fill="#EBEBEB"/><ellipse cx="89.631" cy="41.029" rx="1.773" ry="1.739" fill="#EBEBEB"/><ellipse cx="100.613" cy="41.029" rx="1.773" ry="1.739" fill="#EBEBEB"/><ellipse cx="111.596" cy="41.029" rx="1.773" ry="1.739" fill="#EBEBEB"/><ellipse cx="122.578" cy="41.029" rx="1.773" ry="1.739" fill="#EBEBEB"/><ellipse cx="133.56" cy="41.029" rx="1.773" ry="1.739" fill="#EBEBEB"/><ellipse cx="144.543" cy="41.029" rx="1.773" ry="1.739" fill="#EBEBEB"/><ellipse cx="155.525" cy="41.029" rx="1.773" ry="1.739" fill="#EBEBEB"/><ellipse cx="166.507" cy="41.029" rx="1.773" ry="1.739" fill="#EBEBEB"/><ellipse cx="177.489" cy="41.029" rx="1.773" ry="1.739" fill="#EBEBEB"/><ellipse cx="188.472" cy="41.029" rx="1.773" ry="1.739" fill="#EBEBEB"/><ellipse cx="199.454" cy="41.029" rx="1.773" ry="1.739" fill="#EBEBEB"/><ellipse cx="210.436" cy="41.029" rx="1.773" ry="1.739" fill="#EBEBEB"/><ellipse cx="1.773" cy="50.825" rx="1.773" ry="1.739" fill="#EBEBEB"/><ellipse cx="12.755" cy="50.825" rx="1.773" ry="1.739" fill="#EBEBEB"/><ellipse cx="23.737" cy="50.825" rx="1.773" ry="1.739" fill="#EBEBEB"/><ellipse cx="34.72" cy="50.825" rx="1.773" ry="1.739" fill="#EBEBEB"/><ellipse cx="45.702" cy="50.825" rx="1.773" ry="1.739" fill="#EBEBEB"/><ellipse cx="56.684" cy="50.825" rx="1.773" ry="1.739" fill="#EBEBEB"/><ellipse cx="67.667" cy="50.825" rx="1.773" ry="1.739" fill="#EBEBEB"/><ellipse cx="78.649" cy="50.825" rx="1.773" ry="1.739" fill="#EBEBEB"/><ellipse cx="89.631" cy="50.825" rx="1.773" ry="1.739" fill="#EBEBEB"/><ellipse cx="100.613" cy="50.825" rx="1.773" ry="1.739" fill="#EBEBEB"/><ellipse cx="111.596" cy="50.825" rx="1.773" ry="1.739" fill="#EBEBEB"/><ellipse cx="122.578" cy="50.825" rx="1.773" ry="1.739" fill="#EBEBEB"/><ellipse cx="133.56" cy="50.825" rx="1.773" ry="1.739" fill="#EBEBEB"/><ellipse cx="144.543" cy="50.825" rx="1.773" ry="1.739" fill="#EBEBEB"/><ellipse cx="155.525" cy="50.825" rx="1.773" ry="1.739" fill="#EBEBEB"/><ellipse cx="166.507" cy="50.825" rx="1.773" ry="1.739" fill="#EBEBEB"/><ellipse cx="177.489" cy="50.825" rx="1.773" ry="1.739" fill="#EBEBEB"/><ellipse cx="188.472" cy="50.825" rx="1.773" ry="1.739" fill="#EBEBEB"/><ellipse cx="199.454" cy="50.825" rx="1.773" ry="1.739" fill="#EBEBEB"/><ellipse cx="210.436" cy="50.825" rx="1.773" ry="1.739" fill="#EBEBEB"/><ellipse cx="1.773" cy="60.621" rx="1.773" ry="1.739" fill="#EBEBEB"/><ellipse cx="12.755" cy="60.621" rx="1.773" ry="1.739" fill="#EBEBEB"/><ellipse cx="23.737" cy="60.621" rx="1.773" ry="1.739" fill="#EBEBEB"/><ellipse cx="34.72" cy="60.621" rx="1.773" ry="1.739" fill="#EBEBEB"/><ellipse cx="45.702" cy="60.621" rx="1.773" ry="1.739" fill="#EBEBEB"/><ellipse cx="56.684" cy="60.621" rx="1.773" ry="1.739" fill="#EBEBEB"/><ellipse cx="67.667" cy="60.621" rx="1.773" ry="1.739" fill="#EBEBEB"/><ellipse cx="78.649" cy="60.621" rx="1.773" ry="1.739" fill="#EBEBEB"/><ellipse cx="89.631" cy="60.621" rx="1.773" ry="1.739" fill="#EBEBEB"/><ellipse cx="100.613" cy="60.621" rx="1.773" ry="1.739" fill="#EBEBEB"/><ellipse cx="111.596" cy="60.621" rx="1.773" ry="1.739" fill="#EBEBEB"/><ellipse cx="122.578" cy="60.621" rx="1.773" ry="1.739" fill="#EBEBEB"/><ellipse cx="133.56" cy="60.621" rx="1.773" ry="1.739" fill="#EBEBEB"/><ellipse cx="144.543" cy="60.621" rx="1.773" ry="1.739" fill="#EBEBEB"/><ellipse cx="155.525" cy="60.621" rx="1.773" ry="1.739" fill="#EBEBEB"/><ellipse cx="166.507" cy="60.621" rx="1.773" ry="1.739" fill="#EBEBEB"/><ellipse cx="177.489" cy="60.621" rx="1.773" ry="1.739" fill="#EBEBEB"/><ellipse cx="188.472" cy="60.621" rx="1.773" ry="1.739" fill="#EBEBEB"/><ellipse cx="199.454" cy="60.621" rx="1.773" ry="1.739" fill="#EBEBEB"/><ellipse cx="210.436" cy="60.621" rx="1.773" ry="1.739" fill="#EBEBEB"/><ellipse cx="1.773" cy="70.417" rx="1.773" ry="1.739" fill="#EBEBEB"/><ellipse cx="12.755" cy="70.417" rx="1.773" ry="1.739" fill="#EBEBEB"/><ellipse cx="23.737" cy="70.417" rx="1.773" ry="1.739" fill="#EBEBEB"/><ellipse cx="34.72" cy="70.417" rx="1.773" ry="1.739" fill="#EBEBEB"/><ellipse cx="45.702" cy="70.417" rx="1.773" ry="1.739" fill="#EBEBEB"/><ellipse cx="56.684" cy="70.417" rx="1.773" ry="1.739" fill="#EBEBEB"/><ellipse cx="67.667" cy="70.417" rx="1.773" ry="1.739" fill="#EBEBEB"/><ellipse cx="78.649" cy="70.417" rx="1.773" ry="1.739" fill="#EBEBEB"/><ellipse cx="89.631" cy="70.417" rx="1.773" ry="1.739" fill="#EBEBEB"/><ellipse cx="100.613" cy="70.417" rx="1.773" ry="1.739" fill="#EBEBEB"/><ellipse cx="111.596" cy="70.417" rx="1.773" ry="1.739" fill="#EBEBEB"/><ellipse cx="122.578" cy="70.417" rx="1.773" ry="1.739" fill="#EBEBEB"/><ellipse cx="133.56" cy="70.417" rx="1.773" ry="1.739" fill="#EBEBEB"/><ellipse cx="144.543" cy="70.417" rx="1.773" ry="1.739" fill="#EBEBEB"/><ellipse cx="155.525" cy="70.417" rx="1.773" ry="1.739" fill="#EBEBEB"/><ellipse cx="166.507" cy="70.417" rx="1.773" ry="1.739" fill="#EBEBEB"/><ellipse cx="177.489" cy="70.417" rx="1.773" ry="1.739" fill="#EBEBEB"/><ellipse cx="188.472" cy="70.417" rx="1.773" ry="1.739" fill="#EBEBEB"/><ellipse cx="199.454" cy="70.417" rx="1.773" ry="1.739" fill="#EBEBEB"/><ellipse cx="210.436" cy="70.417" rx="1.773" ry="1.739" fill="#EBEBEB"/><ellipse cx="1.773" cy="80.213" rx="1.773" ry="1.739" fill="#EBEBEB"/><ellipse cx="12.755" cy="80.213" rx="1.773" ry="1.739" fill="#EBEBEB"/><ellipse cx="23.737" cy="80.213" rx="1.773" ry="1.739" fill="#EBEBEB"/><ellipse cx="34.72" cy="80.213" rx="1.773" ry="1.739" fill="#EBEBEB"/><ellipse cx="45.702" cy="80.213" rx="1.773" ry="1.739" fill="#EBEBEB"/><ellipse cx="56.684" cy="80.213" rx="1.773" ry="1.739" fill="#EBEBEB"/><ellipse cx="67.667" cy="80.213" rx="1.773" ry="1.739" fill="#EBEBEB"/><ellipse cx="78.649" cy="80.213" rx="1.773" ry="1.739" fill="#EBEBEB"/><ellipse cx="89.631" cy="80.213" rx="1.773" ry="1.739" fill="#EBEBEB"/><ellipse cx="100.613" cy="80.213" rx="1.773" ry="1.739" fill="#EBEBEB"/><ellipse cx="111.596" cy="80.213" rx="1.773" ry="1.739" fill="#EBEBEB"/><ellipse cx="122.578" cy="80.213" rx="1.773" ry="1.739" fill="#EBEBEB"/><ellipse cx="133.56" cy="80.213" rx="1.773" ry="1.739" fill="#EBEBEB"/><ellipse cx="144.543" cy="80.213" rx="1.773" ry="1.739" fill="#EBEBEB"/><ellipse cx="155.525" cy="80.213" rx="1.773" ry="1.739" fill="#EBEBEB"/><ellipse cx="166.507" cy="80.213" rx="1.773" ry="1.739" fill="#EBEBEB"/><ellipse cx="177.489" cy="80.213" rx="1.773" ry="1.739" fill="#EBEBEB"/><ellipse cx="188.472" cy="80.213" rx="1.773" ry="1.739" fill="#EBEBEB"/><ellipse cx="199.454" cy="80.213" rx="1.773" ry="1.739" fill="#EBEBEB"/><ellipse cx="210.436" cy="80.213" rx="1.773" ry="1.739" fill="#EBEBEB"/><ellipse cx="1.773" cy="90.009" rx="1.773" ry="1.739" fill="#EBEBEB"/><ellipse cx="12.755" cy="90.009" rx="1.773" ry="1.739" fill="#EBEBEB"/><ellipse cx="23.737" cy="90.009" rx="1.773" ry="1.739" fill="#EBEBEB"/><ellipse cx="34.72" cy="90.009" rx="1.773" ry="1.739" fill="#EBEBEB"/><ellipse cx="45.702" cy="90.009" rx="1.773" ry="1.739" fill="#EBEBEB"/><ellipse cx="56.684" cy="90.009" rx="1.773" ry="1.739" fill="#EBEBEB"/><ellipse cx="67.667" cy="90.009" rx="1.773" ry="1.739" fill="#EBEBEB"/><ellipse cx="78.649" cy="90.009" rx="1.773" ry="1.739" fill="#EBEBEB"/><ellipse cx="89.631" cy="90.009" rx="1.773" ry="1.739" fill="#EBEBEB"/><ellipse cx="100.613" cy="90.009" rx="1.773" ry="1.739" fill="#EBEBEB"/><ellipse cx="111.596" cy="90.009" rx="1.773" ry="1.739" fill="#EBEBEB"/><ellipse cx="122.578" cy="90.009" rx="1.773" ry="1.739" fill="#EBEBEB"/><ellipse cx="133.56" cy="90.009" rx="1.773" ry="1.739" fill="#EBEBEB"/><ellipse cx="144.543" cy="90.009" rx="1.773" ry="1.739" fill="#EBEBEB"/><ellipse cx="155.525" cy="90.009" rx="1.773" ry="1.739" fill="#EBEBEB"/><ellipse cx="166.507" cy="90.009" rx="1.773" ry="1.739" fill="#EBEBEB"/><ellipse cx="177.489" cy="90.009" rx="1.773" ry="1.739" fill="#EBEBEB"/><ellipse cx="188.472" cy="90.009" rx="1.773" ry="1.739" fill="#EBEBEB"/><ellipse cx="199.454" cy="90.009" rx="1.773" ry="1.739" fill="#EBEBEB"/><ellipse cx="210.436" cy="90.009" rx="1.773" ry="1.739" fill="#EBEBEB"/><ellipse cx="1.773" cy="99.805" rx="1.773" ry="1.739" fill="#EBEBEB"/><ellipse cx="12.755" cy="99.805" rx="1.773" ry="1.739" fill="#EBEBEB"/><ellipse cx="23.737" cy="99.805" rx="1.773" ry="1.739" fill="#EBEBEB"/><ellipse cx="34.72" cy="99.805" rx="1.773" ry="1.739" fill="#EBEBEB"/><ellipse cx="45.702" cy="99.805" rx="1.773" ry="1.739" fill="#EBEBEB"/><ellipse cx="56.684" cy="99.805" rx="1.773" ry="1.739" fill="#EBEBEB"/><ellipse cx="67.667" cy="99.805" rx="1.773" ry="1.739" fill="#EBEBEB"/><ellipse cx="78.649" cy="99.805" rx="1.773" ry="1.739" fill="#EBEBEB"/><ellipse cx="89.631" cy="99.805" rx="1.773" ry="1.739" fill="#EBEBEB"/><ellipse cx="100.613" cy="99.805" rx="1.773" ry="1.739" fill="#EBEBEB"/><ellipse cx="111.596" cy="99.805" rx="1.773" ry="1.739" fill="#EBEBEB"/><ellipse cx="122.578" cy="99.805" rx="1.773" ry="1.739" fill="#EBEBEB"/><ellipse cx="133.56" cy="99.805" rx="1.773" ry="1.739" fill="#EBEBEB"/><ellipse cx="144.543" cy="99.805" rx="1.773" ry="1.739" fill="#EBEBEB"/><ellipse cx="155.525" cy="99.805" rx="1.773" ry="1.739" fill="#EBEBEB"/><ellipse cx="166.507" cy="99.805" rx="1.773" ry="1.739" fill="#EBEBEB"/><ellipse cx="177.489" cy="99.805" rx="1.773" ry="1.739" fill="#EBEBEB"/><ellipse cx="188.472" cy="99.805" rx="1.773" ry="1.739" fill="#EBEBEB"/><ellipse cx="199.454" cy="99.805" rx="1.773" ry="1.739" fill="#EBEBEB"/><ellipse cx="210.436" cy="99.805" rx="1.773" ry="1.739" fill="#EBEBEB"/><ellipse cx="1.773" cy="109.601" rx="1.773" ry="1.739" fill="#EBEBEB"/><ellipse cx="12.755" cy="109.601" rx="1.773" ry="1.739" fill="#EBEBEB"/><ellipse cx="23.737" cy="109.601" rx="1.773" ry="1.739" fill="#EBEBEB"/><ellipse cx="34.72" cy="109.601" rx="1.773" ry="1.739" fill="#EBEBEB"/><ellipse cx="45.702" cy="109.601" rx="1.773" ry="1.739" fill="#EBEBEB"/><ellipse cx="56.684" cy="109.601" rx="1.773" ry="1.739" fill="#EBEBEB"/><ellipse cx="67.667" cy="109.601" rx="1.773" ry="1.739" fill="#EBEBEB"/><ellipse cx="78.649" cy="109.601" rx="1.773" ry="1.739" fill="#EBEBEB"/><ellipse cx="89.631" cy="109.601" rx="1.773" ry="1.739" fill="#EBEBEB"/><ellipse cx="100.613" cy="109.601" rx="1.773" ry="1.739" fill="#EBEBEB"/><ellipse cx="111.596" cy="109.601" rx="1.773" ry="1.739" fill="#EBEBEB"/><ellipse cx="122.578" cy="109.601" rx="1.773" ry="1.739" fill="#EBEBEB"/><ellipse cx="133.56" cy="109.601" rx="1.773" ry="1.739" fill="#EBEBEB"/><ellipse cx="144.543" cy="109.601" rx="1.773" ry="1.739" fill="#EBEBEB"/><ellipse cx="155.525" cy="109.601" rx="1.773" ry="1.739" fill="#EBEBEB"/><ellipse cx="166.507" cy="109.601" rx="1.773" ry="1.739" fill="#EBEBEB"/><ellipse cx="177.489" cy="109.601" rx="1.773" ry="1.739" fill="#EBEBEB"/><ellipse cx="188.472" cy="109.601" rx="1.773" ry="1.739" fill="#EBEBEB"/><ellipse cx="199.454" cy="109.601" rx="1.773" ry="1.739" fill="#EBEBEB"/><ellipse cx="210.436" cy="109.601" rx="1.773" ry="1.739" fill="#EBEBEB"/><ellipse cx="1.773" cy="119.397" rx="1.773" ry="1.739" fill="#EBEBEB"/><ellipse cx="12.755" cy="119.397" rx="1.773" ry="1.739" fill="#EBEBEB"/><ellipse cx="23.737" cy="119.397" rx="1.773" ry="1.739" fill="#EBEBEB"/><ellipse cx="34.72" cy="119.397" rx="1.773" ry="1.739" fill="#EBEBEB"/><ellipse cx="45.702" cy="119.397" rx="1.773" ry="1.739" fill="#EBEBEB"/><ellipse cx="56.684" cy="119.397" rx="1.773" ry="1.739" fill="#EBEBEB"/><ellipse cx="67.667" cy="119.397" rx="1.773" ry="1.739" fill="#EBEBEB"/><ellipse cx="78.649" cy="119.397" rx="1.773" ry="1.739" fill="#EBEBEB"/><ellipse cx="89.631" cy="119.397" rx="1.773" ry="1.739" fill="#EBEBEB"/><ellipse cx="100.613" cy="119.397" rx="1.773" ry="1.739" fill="#EBEBEB"/><ellipse cx="111.596" cy="119.397" rx="1.773" ry="1.739" fill="#EBEBEB"/><ellipse cx="122.578" cy="119.397" rx="1.773" ry="1.739" fill="#EBEBEB"/><ellipse cx="133.56" cy="119.397" rx="1.773" ry="1.739" fill="#EBEBEB"/><ellipse cx="144.543" cy="119.397" rx="1.773" ry="1.739" fill="#EBEBEB"/><ellipse cx="155.525" cy="119.397" rx="1.773" ry="1.739" fill="#EBEBEB"/><ellipse cx="166.507" cy="119.397" rx="1.773" ry="1.739" fill="#EBEBEB"/><ellipse cx="177.489" cy="119.397" rx="1.773" ry="1.739" fill="#EBEBEB"/><ellipse cx="188.472" cy="119.397" rx="1.773" ry="1.739" fill="#EBEBEB"/><ellipse cx="199.454" cy="119.397" rx="1.773" ry="1.739" fill="#EBEBEB"/><ellipse cx="210.436" cy="119.397" rx="1.773" ry="1.739" fill="#EBEBEB"/><ellipse cx="1.773" cy="129.193" rx="1.773" ry="1.739" fill="#EBEBEB"/><ellipse cx="12.755" cy="129.193" rx="1.773" ry="1.739" fill="#EBEBEB"/><ellipse cx="23.737" cy="129.193" rx="1.773" ry="1.739" fill="#EBEBEB"/><ellipse cx="34.72" cy="129.193" rx="1.773" ry="1.739" fill="#EBEBEB"/><ellipse cx="45.702" cy="129.193" rx="1.773" ry="1.739" fill="#EBEBEB"/><ellipse cx="56.684" cy="129.193" rx="1.773" ry="1.739" fill="#EBEBEB"/><ellipse cx="67.667" cy="129.193" rx="1.773" ry="1.739" fill="#EBEBEB"/><ellipse cx="78.649" cy="129.193" rx="1.773" ry="1.739" fill="#EBEBEB"/><ellipse cx="89.631" cy="129.193" rx="1.773" ry="1.739" fill="#EBEBEB"/><ellipse cx="100.613" cy="129.193" rx="1.773" ry="1.739" fill="#EBEBEB"/><ellipse cx="111.596" cy="129.193" rx="1.773" ry="1.739" fill="#EBEBEB"/><ellipse cx="122.578" cy="129.193" rx="1.773" ry="1.739" fill="#EBEBEB"/><ellipse cx="133.56" cy="129.193" rx="1.773" ry="1.739" fill="#EBEBEB"/><ellipse cx="144.543" cy="129.193" rx="1.773" ry="1.739" fill="#EBEBEB"/><ellipse cx="155.525" cy="129.193" rx="1.773" ry="1.739" fill="#EBEBEB"/><ellipse cx="166.507" cy="129.193" rx="1.773" ry="1.739" fill="#EBEBEB"/><ellipse cx="177.489" cy="129.193" rx="1.773" ry="1.739" fill="#EBEBEB"/><ellipse cx="188.472" cy="129.193" rx="1.773" ry="1.739" fill="#EBEBEB"/><ellipse cx="199.454" cy="129.193" rx="1.773" ry="1.739" fill="#EBEBEB"/><ellipse cx="210.436" cy="129.193" rx="1.773" ry="1.739" fill="#EBEBEB"/><ellipse cx="1.773" cy="138.989" rx="1.773" ry="1.739" fill="#EBEBEB"/><ellipse cx="12.755" cy="138.989" rx="1.773" ry="1.739" fill="#EBEBEB"/><ellipse cx="23.737" cy="138.989" rx="1.773" ry="1.739" fill="#EBEBEB"/><ellipse cx="34.72" cy="138.989" rx="1.773" ry="1.739" fill="#EBEBEB"/><ellipse cx="45.702" cy="138.989" rx="1.773" ry="1.739" fill="#EBEBEB"/><ellipse cx="56.684" cy="138.989" rx="1.773" ry="1.739" fill="#EBEBEB"/><ellipse cx="67.667" cy="138.989" rx="1.773" ry="1.739" fill="#EBEBEB"/><ellipse cx="78.649" cy="138.989" rx="1.773" ry="1.739" fill="#EBEBEB"/><ellipse cx="89.631" cy="138.989" rx="1.773" ry="1.739" fill="#EBEBEB"/><ellipse cx="100.613" cy="138.989" rx="1.773" ry="1.739" fill="#EBEBEB"/><ellipse cx="111.596" cy="138.989" rx="1.773" ry="1.739" fill="#EBEBEB"/><ellipse cx="122.578" cy="138.989" rx="1.773" ry="1.739" fill="#EBEBEB"/><ellipse cx="133.56" cy="138.989" rx="1.773" ry="1.739" fill="#EBEBEB"/><ellipse cx="144.543" cy="138.989" rx="1.773" ry="1.739" fill="#EBEBEB"/><ellipse cx="155.525" cy="138.989" rx="1.773" ry="1.739" fill="#EBEBEB"/><ellipse cx="166.507" cy="138.989" rx="1.773" ry="1.739" fill="#EBEBEB"/><ellipse cx="177.489" cy="138.989" rx="1.773" ry="1.739" fill="#EBEBEB"/><ellipse cx="188.472" cy="138.989" rx="1.773" ry="1.739" fill="#EBEBEB"/><ellipse cx="199.454" cy="138.989" rx="1.773" ry="1.739" fill="#EBEBEB"/><ellipse cx="210.436" cy="138.989" rx="1.773" ry="1.739" fill="#EBEBEB"/><ellipse cx="1.773" cy="148.785" rx="1.773" ry="1.739" fill="#EBEBEB"/><ellipse cx="12.755" cy="148.785" rx="1.773" ry="1.739" fill="#EBEBEB"/><ellipse cx="23.737" cy="148.785" rx="1.773" ry="1.739" fill="#EBEBEB"/><ellipse cx="34.72" cy="148.785" rx="1.773" ry="1.739" fill="#EBEBEB"/><ellipse cx="45.702" cy="148.785" rx="1.773" ry="1.739" fill="#EBEBEB"/><ellipse cx="56.684" cy="148.785" rx="1.773" ry="1.739" fill="#EBEBEB"/><ellipse cx="67.667" cy="148.785" rx="1.773" ry="1.739" fill="#EBEBEB"/><ellipse cx="78.649" cy="148.785" rx="1.773" ry="1.739" fill="#EBEBEB"/><ellipse cx="89.631" cy="148.785" rx="1.773" ry="1.739" fill="#EBEBEB"/><ellipse cx="100.613" cy="148.785" rx="1.773" ry="1.739" fill="#EBEBEB"/><ellipse cx="111.596" cy="148.785" rx="1.773" ry="1.739" fill="#EBEBEB"/><ellipse cx="122.578" cy="148.785" rx="1.773" ry="1.739" fill="#EBEBEB"/><ellipse cx="133.56" cy="148.785" rx="1.773" ry="1.739" fill="#EBEBEB"/><ellipse cx="144.543" cy="148.785" rx="1.773" ry="1.739" fill="#EBEBEB"/><ellipse cx="155.525" cy="148.785" rx="1.773" ry="1.739" fill="#EBEBEB"/><ellipse cx="166.507" cy="148.785" rx="1.773" ry="1.739" fill="#EBEBEB"/><ellipse cx="177.489" cy="148.785" rx="1.773" ry="1.739" fill="#EBEBEB"/><ellipse cx="188.472" cy="148.785" rx="1.773" ry="1.739" fill="#EBEBEB"/><ellipse cx="199.454" cy="148.785" rx="1.773" ry="1.739" fill="#EBEBEB"/><ellipse cx="210.436" cy="148.785" rx="1.773" ry="1.739" fill="#EBEBEB"/></svg>