<svg aria-hidden="true" style="width:0;height:0;position:absolute;overflow:hidden" xmlns="http://www.w3.org/2000/svg"><defs><symbol id="arrow" viewBox="0 0 24 24"><path d="M15.422 16.594 14.016 18l-6-6 6-6 1.406 1.406L10.828 12z"/></symbol><symbol id="facebook" viewBox="0 0 32 32"><path d="M20.16 7.093h2.507v-4.24a35.101 35.101 0 0 0-3.653-.187c-3.627 0-6.107 2.213-6.107 6.267v3.493H8.814v4.747h4.093v12.16h4.907v-12.16h4.08l.613-4.747h-4.693V9.399c0-1.4.373-2.307 2.347-2.307z"/></symbol><symbol id="twitter" viewBox="0 0 40 32"><path d="M39.201 3.945c-1.411.617-2.946 1.062-4.527 1.235A7.934 7.934 0 0 0 38.131.783a15.368 15.368 0 0 1-4.988 1.927c-.736-.798-1.625-1.434-2.613-1.867S28.476.187 27.399.189c-4.356 0-7.86 3.583-7.86 7.981 0 .617.074 1.235.194 1.829C13.21 9.653 7.392 6.49 3.525 1.649a8.004 8.004 0 0 0-1.069 4.028 8.018 8.018 0 0 0 3.503 6.648 7.847 7.847 0 0 1-3.554-1.015v.098c0 3.878 2.701 7.092 6.302 7.831a8.218 8.218 0 0 1-2.07.271c-.512 0-.996-.052-1.484-.122.996 3.162 3.895 5.459 7.348 5.534a15.61 15.61 0 0 1-9.759 3.41 15.8 15.8 0 0 1-1.899-.098 22.022 22.022 0 0 0 12.073 3.579c14.456 0 22.367-12.154 22.367-22.703 0-.346 0-.692-.023-1.039a17.056 17.056 0 0 0 3.941-4.126z"/></symbol><symbol id="linkedin" viewBox="0 0 32 32"><path d="M12 12h5.535v2.837h.079c.77-1.381 2.655-2.837 5.464-2.837C28.92 12 30 15.637 30 20.367V30h-5.769v-8.54c0-2.037-.042-4.657-3.001-4.657-3.005 0-3.463 2.218-3.463 4.509V30H12V12zM2 12h6v18H2V12zM8 7a3 3 0 1 1-6 0 3 3 0 0 1 6 0z"/></symbol><symbol id="instagram" viewBox="0 0 32 32"><path d="M16 0c-4.347 0-4.889.02-6.596.096C7.7.176 6.54.444 5.52.84c-1.052.408-1.945.956-2.835 1.845S1.246 4.466.84 5.52C.444 6.54.175 7.7.096 9.404.016 11.111 0 11.653 0 16s.02 4.889.096 6.596c.08 1.703.348 2.864.744 3.884a7.854 7.854 0 0 0 1.845 2.835A7.807 7.807 0 0 0 5.52 31.16c1.021.395 2.181.665 3.884.744 1.707.08 2.249.096 6.596.096s4.889-.02 6.596-.096c1.703-.08 2.864-.349 3.884-.744a7.867 7.867 0 0 0 2.835-1.845 7.799 7.799 0 0 0 1.845-2.835c.395-1.02.665-2.181.744-3.884.08-1.707.096-2.249.096-6.596s-.02-4.889-.096-6.596c-.08-1.703-.349-2.865-.744-3.884a7.859 7.859 0 0 0-1.845-2.835A7.786 7.786 0 0 0 26.48.84C25.46.444 24.299.175 22.596.096 20.889.016 20.347 0 16 0zm0 2.88c4.271 0 4.78.021 6.467.095 1.56.073 2.407.332 2.969.553.749.289 1.28.636 1.843 1.195a4.95 4.95 0 0 1 1.195 1.841c.219.563.48 1.409.551 2.969.076 1.688.093 2.195.093 6.467s-.02 4.78-.099 6.467c-.081 1.56-.341 2.407-.561 2.969-.299.749-.639 1.28-1.199 1.843a5.002 5.002 0 0 1-1.84 1.195c-.56.219-1.42.48-2.98.551-1.699.076-2.199.093-6.479.093-4.281 0-4.781-.02-6.479-.099-1.561-.081-2.421-.341-2.981-.561-.759-.299-1.28-.639-1.839-1.199a4.867 4.867 0 0 1-1.2-1.84c-.22-.56-.479-1.42-.56-2.98-.06-1.68-.081-2.199-.081-6.459 0-4.261.021-4.781.081-6.481.081-1.56.34-2.419.56-2.979.28-.76.639-1.28 1.2-1.841.559-.559 1.08-.919 1.839-1.197.56-.221 1.401-.481 2.961-.561 1.7-.06 2.2-.08 6.479-.08zm0 4.904A8.215 8.215 0 0 0 7.784 16c0 4.54 3.68 8.216 8.216 8.216 4.54 0 8.216-3.68 8.216-8.216 0-4.54-3.68-8.216-8.216-8.216zm0 13.549c-2.947 0-5.333-2.387-5.333-5.333s2.387-5.333 5.333-5.333 5.333 2.387 5.333 5.333-2.387 5.333-5.333 5.333zM26.461 7.46a1.921 1.921 0 0 1-3.84 0 1.92 1.92 0 0 1 3.84 0z"/></symbol><symbol id="close" viewBox="0 0 32 32"><path d="M19.803 16 31.212 4.591A2.69 2.69 0 0 0 27.409.788L16 12.197 4.591.788A2.69 2.69 0 0 0 .788 4.591L12.197 16 .788 27.409a2.69 2.69 0 0 0 3.803 3.803L16 19.803l11.409 11.409a2.69 2.69 0 0 0 3.803-3.803L19.803 16z"/></symbol></defs></svg>