<svg aria-hidden="true" style="width:0;height:0;position:absolute;overflow:hidden" xmlns="http://www.w3.org/2000/svg"><defs><symbol id="design" viewBox="0 0 32 32"><path d="M25.29 23.226v-1.032h5.161a1.55 1.55 0 0 0 1.548-1.548v-8.258a1.55 1.55 0 0 0-1.548-1.548H16a1.55 1.55 0 0 0-1.548 1.548v8.258A1.55 1.55 0 0 0 16 22.194h5.161v1.032h-8.774v-.516c0-.854-.725-1.548-1.578-1.548H9.063L3.76 12.529c.232-.334.37-.738.37-1.174 0-.127-.016-.25-.038-.371l2.16-3.961A4.091 4.091 0 0 0 7.826 9.5l.337.252 1.274-1.133c.279.101.565.155.856.155a2.584 2.584 0 0 0 2.581-2.581 2.47 2.47 0 0 0-.073-.563l1.277-1.135-.211-.365a4.145 4.145 0 0 0-3.574-2.066c-.097 0-.193.008-.288.014L8.26.333 4.425 3.529l.711.948-3.391 4.845a2.061 2.061 0 0 0-1.744 2.031c0 .774.433 1.442 1.065 1.795l4.268 8.011H3.583c-.854 0-1.518.695-1.518 1.548v.516H.001v3.097h1.548v5.677h1.032V26.32h1.032v5.677h1.032V26.32h22.71v5.677h1.032V26.32h1.032v5.677h1.032V26.32h1.548v-3.097h-6.71zm-9.806-10.839c0-.284.232-.516.516-.516h14.451c.284 0 .516.232.516.516v6.71H15.483v-6.71zm5.677 8.774H16a.517.517 0 0 1-.516-.516v-.516h15.484v.516a.517.517 0 0 1-.516.516h-9.29zm3.097 1.033v1.032h-2.065v-1.032h2.065zM10.431 7.736l1.377-1.224a1.551 1.551 0 0 1-1.377 1.224zm-.138-4.639c.96 0 1.865.453 2.447 1.205L8.127 8.403a3.063 3.063 0 0 1-.931-2.209 3.1 3.1 0 0 1 3.097-3.097zM8.196 1.731l.614.614a4.148 4.148 0 0 0-2.314 2.228l-.657-.877 2.358-1.965zm-2.41 3.616.118.157-2.391 4.383a2.066 2.066 0 0 0-.614-.417l2.887-4.124zm-4.754 6.008a1.033 1.033 0 0 1 2.064 0 1.033 1.033 0 0 1-2.064 0zm1.33 2.034a2.01 2.01 0 0 0 .601-.185l4.888 7.957H6.503l-4.141-7.772zm1.221 8.805h7.226c.284 0 .546.232.546.516v.516H3.097v-.516c0-.284.202-.516.486-.516zm27.385 3.096H1.033v-1.032h29.935v1.032z"/><path d="M14.968 8.774h16.516v1.032H14.968V8.774zM22.193 0h-4.129v8.258h4.129V0zm-1.032 7.226h-2.065V5.161h2.065v2.065zm0-3.097h-2.065V1.032h2.065v3.097z"/><path d="M20.645 6.194a.516.516 0 1 1-1.032 0 .516.516 0 0 1 1.032 0zM26.839 0H22.71v8.258h4.129V0zm-3.097 1.032h2.065v3.097h-2.065V1.032zm2.064 6.194h-2.065V5.161h2.065v2.065z"/><path d="M25.29 6.194a.516.516 0 1 1-1.032 0 .516.516 0 0 1 1.032 0zM31.484 0h-4.129v8.258h4.129V0zm-3.097 1.032h2.065v3.097h-2.065V1.032zm2.064 6.194h-2.065V5.161h2.065v2.065z"/><path d="M29.935 6.194a.516.516 0 1 1-1.032 0 .516.516 0 0 1 1.032 0z"/></symbol><symbol id="architecture" viewBox="0 0 32 32"><path d="M29.944 5.269V1.671l1.234.925.617-.822L29.43.001l-2.365 1.774.617.822 1.234-.925V5.27a2.573 2.573 0 0 1-2.57 2.57H24.29c-1.627 0-3.003 1.028-3.447 2.57h-.736l-.019 1.028h.603v1.602a5.432 5.432 0 0 0-.771-.06 5.333 5.333 0 0 0-3.289 1.135 3.598 3.598 0 0 0-2.623-1.135 3.58 3.58 0 0 0-1.028.155v-3.24a3.087 3.087 0 0 0-3.084-3.084h-.514V5.783H8.354v1.028H6.812a3.087 3.087 0 0 0-3.084 3.084v1.028c0 .567-.461 1.028-1.028 1.028H1.672l.925-1.234-.822-.617-1.773 2.364 1.774 2.365.822-.617-.925-1.234h1.028a2.058 2.058 0 0 0 2.056-2.056V9.894c0-1.134.922-2.056 2.056-2.056h3.084c1.134 0 2.056.922 2.056 2.056v3.737a3.6 3.6 0 0 0-.617.541 4.36 4.36 0 0 0-5.507 3.612 4.383 4.383 0 0 0-3.129 4.19c0 .91.286 1.799.812 2.536a4.296 4.296 0 0 0-.298 1.577 4.374 4.374 0 0 0 4.369 4.369c.195 0 .386-.017.574-.042l.106-.016c.19-.03.377-.069.559-.123a4.32 4.32 0 0 0 2.359.696c.942 0 1.84-.297 2.585-.846a4.338 4.338 0 0 0 3.584 1.874 4.335 4.335 0 0 0 3.415-1.649c.676.408 1.44.62 2.24.62a4.374 4.374 0 0 0 4.369-4.369c0-.52-.092-1.028-.273-1.514a4.359 4.359 0 0 0 1.231-3.883h.071v-1.028h-.393a4.382 4.382 0 0 0-2.729-2.388 5.367 5.367 0 0 0-3.561-4.499v-1.852a2.573 2.573 0 0 1 2.57-2.57h2.056a3.603 3.603 0 0 0 3.598-3.598zM24.28 18.217l.014.406.398.08a3.333 3.333 0 0 1 2.166 1.514v.989h.412c.061.25.103.506.103.771 0 .816-.299 1.588-.827 2.193-.739-1.018-1.91-1.64-3.252-1.729l-.067.962c1.708.113 3.05 1.344 3.112 3.317a3.343 3.343 0 0 1-3.335 3.225 3.31 3.31 0 0 1-2.053-.709l-.205-.16a3.333 3.333 0 0 1-1.08-2.25l-1.026.068a4.347 4.347 0 0 0 1.307 2.833 3.313 3.313 0 0 1-2.598 1.246 3.323 3.323 0 0 1-2.992-1.862l-.317-.639-.506.503a3.295 3.295 0 0 1-3.528.747 4.367 4.367 0 0 0 1.945-3.632c0-.109-.014-.216-.022-.324a4.358 4.358 0 0 0 2.203-1.081l-.695-.758a3.326 3.326 0 0 1-1.702.829 4.36 4.36 0 0 0-2.12-2.535l-.479.91a3.336 3.336 0 0 1 1.787 2.959 3.345 3.345 0 0 1-2.753 3.287l-.037.006a3.32 3.32 0 0 1-.552.049 3.345 3.345 0 0 1-3.341-3.341c0-.495.109-.975.325-1.43l.141-.296-.21-.253a3.345 3.345 0 0 1-.771-2.133 3.35 3.35 0 0 1 2.68-3.276l.394-.079.018-.401a3.333 3.333 0 0 1 1.533-2.658v1.016h1.028v-1.449c.248-.059.505-.093.771-.093.397 0 .794.073 1.176.218l.368.139.23-.318.025-.031v2.562h1.028v-3.376c.321-.142.67-.222 1.028-.222.711 0 1.38.297 1.861.804-.862.98-1.476 2.25-1.476 3.565 0 2.976 2.699 5.398 5.269 5.398V22.75c-2.056 0-4.241-1.96-4.241-4.369 0-1.073.463-2.108 1.17-2.904l.295-.25a4.374 4.374 0 0 1 3.804-1.144v1.985a2.573 2.573 0 0 1-2.57 2.57h-.514v1.028h.514a3.603 3.603 0 0 0 3.598-3.598V14.4a4.35 4.35 0 0 1 2.562 3.82z"/><path d="M23.775 20.177h1.542v1.028h-1.542v-1.028zM26.345 10.41h1.542v1.028h-1.542V10.41zM18.371 10.949l.518-.888a2.61 2.61 0 0 1-.91-.893l-.878.535c.313.512.751.943 1.269 1.246zM16.578 7.839c0 .053.001.107.004.16l1.027-.114-.003-1.588h-1.028v1.542zM16.578 3.213h1.028v1.542h-1.028V3.213zM29.632 19.861l.495.901a3.646 3.646 0 0 0 1.301-1.213l-.865-.557a2.612 2.612 0 0 1-.931.869zM30.972 17.606c0 .061-.002.121-.007.181l1.026.071c.006-.084.009-.168.009-.253v-1.542h-1.028v1.542zM23.261 10.41h1.542v1.028h-1.542V10.41zM31.876 13.072l-.992.268c.059.217.088.442.088.668v.514H32v-.514c0-.316-.042-.631-.124-.936zM31 11.523a3.618 3.618 0 0 0-1.508-.944l-.313.979c.407.131.78.364 1.078.676l.743-.71zM16.578 1.671h1.028l1.234.925.617-.822L17.092 0l-2.365 1.774.617.822zM8.353 2.699h1.028v1.542H8.353V2.699zM8.353 11.952h1.028v1.542H8.353v-1.542zM8.353 8.867h1.028v1.542H8.353V8.867zM8.353 18.12h1.028v1.542H8.353V18.12zM8.867 1.285l1.748 1.311.617-.822L8.867 0 6.502 1.774l.617.822z"/></symbol><symbol id="planning" viewBox="0 0 32 32"><path d="M.653 24.327h26.449c.17 0 .337-.066.462-.191l4.245-4.245a.652.652 0 0 0 .19-.462h.002v-16a.653.653 0 0 0-.653-.653H.654a.653.653 0 0 0-.653.653v20.245c0 .361.292.653.653.653zm27.102-2.23v-2.015h2.015l-2.015 2.015zM1.306 4.082h29.388v14.694h-3.592a.653.653 0 0 0-.653.653v3.592H1.306V4.082z"/><path d="M22.857 6.041h-6.531a.653.653 0 0 0-.653.653v.98H14.04a.653.653 0 0 0-.653.653v4.898H8.163v-2.286h3.592a.653.653 0 0 0 .653-.653V6.368a.653.653 0 0 0-.653-.653H3.918a.653.653 0 0 0-.653.653v3.918c0 .361.292.653.653.653h2.939v2.939c0 .361.292.653.653.653h5.878v4.571c0 .361.292.653.653.653h1.633v.653c0 .361.292.653.653.653h6.531a.653.653 0 0 0 .653-.653v-3.265a.653.653 0 0 0-.653-.653h-6.531a.653.653 0 0 0-.653.653v1.306h-.98v-3.918h.98v.653c0 .361.292.653.653.653h6.531a.653.653 0 0 0 .653-.653v-3.265a.653.653 0 0 0-.653-.653h-6.531a.653.653 0 0 0-.653.653v1.306h-.98V8.98h.98v.98c0 .361.292.653.653.653h6.531a.653.653 0 0 0 .653-.653V6.695a.653.653 0 0 0-.653-.653zM4.571 9.633V7.021h6.531v2.612H4.571zm12.409 8.163h5.224v1.959H16.98v-1.959zm0-5.225h5.224v1.959H16.98v-1.959zm5.224-3.265H16.98V7.347h5.224v1.959zM3.265 16.163h4.898v1.306H3.265v-1.306zM3.265 18.122h4.898v1.306H3.265v-1.306zM3.265 20.082h8.49v1.306h-8.49v-1.306z"/><path d="M8.816 16.163h1.306v1.306H8.816v-1.306zM24.816 6.041h1.633v1.306h-1.633V6.041zM27.429 6.041h1.633v1.306h-1.633V6.041zM24.816 8h1.633v1.306h-1.633V8zM27.429 8h1.633v1.306h-1.633V8zM24.816 9.959h1.633v1.306h-1.633V9.959zM27.429 9.959h1.633v1.306h-1.633V9.959zM24.816 11.918h1.633v1.306h-1.633v-1.306zM27.429 11.918h1.633v1.306h-1.633v-1.306zM31.553 26.646l-3.918-1.306a.662.662 0 0 0-.206-.033v-.001H.653a.653.653 0 0 0-.653.653v2.612c0 .361.292.653.653.653h26.776a.636.636 0 0 0 .206-.034l3.918-1.306a.653.653 0 0 0 0-1.24zM3.918 27.918H1.306v-1.306h2.612v1.306zm22.858 0H5.225v-1.306h21.551v1.306zm1.306-.253v-.8l1.2.4-1.2.4z"/></symbol></defs></svg>