<svg width="247" height="255" fill="none" xmlns="http://www.w3.org/2000/svg"><ellipse cx="2.643" cy="2.508" rx="2.053" ry="2.444" fill="#EBEBEB"/><ellipse cx="15.362" cy="2.508" rx="2.053" ry="2.444" fill="#EBEBEB"/><ellipse cx="28.081" cy="2.508" rx="2.053" ry="2.444" fill="#EBEBEB"/><ellipse cx="40.8" cy="2.508" rx="2.053" ry="2.444" fill="#EBEBEB"/><ellipse cx="53.519" cy="2.508" rx="2.053" ry="2.444" fill="#EBEBEB"/><ellipse cx="66.238" cy="2.508" rx="2.053" ry="2.444" fill="#EBEBEB"/><ellipse cx="78.957" cy="2.508" rx="2.053" ry="2.444" fill="#EBEBEB"/><ellipse cx="91.677" cy="2.508" rx="2.053" ry="2.444" fill="#EBEBEB"/><ellipse cx="104.396" cy="2.508" rx="2.053" ry="2.444" fill="#EBEBEB"/><ellipse cx="117.115" cy="2.508" rx="2.053" ry="2.444" fill="#EBEBEB"/><ellipse cx="129.834" cy="2.508" rx="2.053" ry="2.444" fill="#EBEBEB"/><ellipse cx="142.553" cy="2.508" rx="2.053" ry="2.444" fill="#EBEBEB"/><ellipse cx="155.272" cy="2.508" rx="2.053" ry="2.444" fill="#EBEBEB"/><ellipse cx="167.991" cy="2.508" rx="2.053" ry="2.444" fill="#EBEBEB"/><ellipse cx="180.71" cy="2.508" rx="2.053" ry="2.444" fill="#EBEBEB"/><ellipse cx="193.429" cy="2.508" rx="2.053" ry="2.444" fill="#EBEBEB"/><ellipse cx="206.149" cy="2.508" rx="2.053" ry="2.444" fill="#EBEBEB"/><ellipse cx="218.868" cy="2.508" rx="2.053" ry="2.444" fill="#EBEBEB"/><ellipse cx="231.587" cy="2.508" rx="2.053" ry="2.444" fill="#EBEBEB"/><ellipse cx="244.306" cy="2.508" rx="2.053" ry="2.444" fill="#EBEBEB"/><ellipse cx="2.643" cy="19.152" rx="2.053" ry="2.444" fill="#EBEBEB"/><ellipse cx="15.362" cy="19.152" rx="2.053" ry="2.444" fill="#EBEBEB"/><ellipse cx="28.081" cy="19.152" rx="2.053" ry="2.444" fill="#EBEBEB"/><ellipse cx="40.8" cy="19.152" rx="2.053" ry="2.444" fill="#EBEBEB"/><ellipse cx="53.519" cy="19.152" rx="2.053" ry="2.444" fill="#EBEBEB"/><ellipse cx="66.239" cy="19.152" rx="2.053" ry="2.444" fill="#EBEBEB"/><ellipse cx="78.958" cy="19.152" rx="2.053" ry="2.444" fill="#EBEBEB"/><ellipse cx="91.677" cy="19.152" rx="2.053" ry="2.444" fill="#EBEBEB"/><ellipse cx="104.396" cy="19.152" rx="2.053" ry="2.444" fill="#EBEBEB"/><ellipse cx="117.115" cy="19.152" rx="2.053" ry="2.444" fill="#EBEBEB"/><ellipse cx="129.834" cy="19.152" rx="2.053" ry="2.444" fill="#EBEBEB"/><ellipse cx="142.553" cy="19.152" rx="2.053" ry="2.444" fill="#EBEBEB"/><ellipse cx="155.272" cy="19.152" rx="2.053" ry="2.444" fill="#EBEBEB"/><ellipse cx="167.991" cy="19.152" rx="2.053" ry="2.444" fill="#EBEBEB"/><ellipse cx="180.71" cy="19.152" rx="2.053" ry="2.444" fill="#EBEBEB"/><ellipse cx="193.43" cy="19.152" rx="2.053" ry="2.444" fill="#EBEBEB"/><ellipse cx="206.149" cy="19.152" rx="2.053" ry="2.444" fill="#EBEBEB"/><ellipse cx="218.868" cy="19.152" rx="2.053" ry="2.444" fill="#EBEBEB"/><ellipse cx="231.587" cy="19.152" rx="2.053" ry="2.444" fill="#EBEBEB"/><ellipse cx="244.306" cy="19.152" rx="2.053" ry="2.444" fill="#EBEBEB"/><ellipse cx="2.643" cy="35.796" rx="2.053" ry="2.444" fill="#EBEBEB"/><ellipse cx="15.362" cy="35.796" rx="2.053" ry="2.444" fill="#EBEBEB"/><ellipse cx="28.081" cy="35.796" rx="2.053" ry="2.444" fill="#EBEBEB"/><ellipse cx="40.8" cy="35.796" rx="2.053" ry="2.444" fill="#EBEBEB"/><ellipse cx="53.519" cy="35.796" rx="2.053" ry="2.444" fill="#EBEBEB"/><ellipse cx="66.239" cy="35.796" rx="2.053" ry="2.444" fill="#EBEBEB"/><ellipse cx="78.958" cy="35.796" rx="2.053" ry="2.444" fill="#EBEBEB"/><ellipse cx="91.677" cy="35.796" rx="2.053" ry="2.444" fill="#EBEBEB"/><ellipse cx="104.396" cy="35.796" rx="2.053" ry="2.444" fill="#EBEBEB"/><ellipse cx="117.115" cy="35.796" rx="2.053" ry="2.444" fill="#EBEBEB"/><ellipse cx="129.834" cy="35.796" rx="2.053" ry="2.444" fill="#EBEBEB"/><ellipse cx="142.553" cy="35.796" rx="2.053" ry="2.444" fill="#EBEBEB"/><ellipse cx="155.272" cy="35.796" rx="2.053" ry="2.444" fill="#EBEBEB"/><ellipse cx="167.991" cy="35.796" rx="2.053" ry="2.444" fill="#EBEBEB"/><ellipse cx="180.71" cy="35.796" rx="2.053" ry="2.444" fill="#EBEBEB"/><ellipse cx="193.43" cy="35.796" rx="2.053" ry="2.444" fill="#EBEBEB"/><ellipse cx="206.149" cy="35.796" rx="2.053" ry="2.444" fill="#EBEBEB"/><ellipse cx="218.868" cy="35.796" rx="2.053" ry="2.444" fill="#EBEBEB"/><ellipse cx="231.587" cy="35.796" rx="2.053" ry="2.444" fill="#EBEBEB"/><ellipse cx="244.306" cy="35.796" rx="2.053" ry="2.444" fill="#EBEBEB"/><ellipse cx="2.643" cy="52.44" rx="2.053" ry="2.444" fill="#EBEBEB"/><ellipse cx="15.362" cy="52.44" rx="2.053" ry="2.444" fill="#EBEBEB"/><ellipse cx="28.081" cy="52.44" rx="2.053" ry="2.444" fill="#EBEBEB"/><ellipse cx="40.8" cy="52.44" rx="2.053" ry="2.444" fill="#EBEBEB"/><ellipse cx="53.519" cy="52.44" rx="2.053" ry="2.444" fill="#EBEBEB"/><ellipse cx="66.239" cy="52.44" rx="2.053" ry="2.444" fill="#EBEBEB"/><ellipse cx="78.958" cy="52.44" rx="2.053" ry="2.444" fill="#EBEBEB"/><ellipse cx="91.677" cy="52.44" rx="2.053" ry="2.444" fill="#EBEBEB"/><ellipse cx="104.396" cy="52.44" rx="2.053" ry="2.444" fill="#EBEBEB"/><ellipse cx="117.115" cy="52.44" rx="2.053" ry="2.444" fill="#EBEBEB"/><ellipse cx="129.834" cy="52.44" rx="2.053" ry="2.444" fill="#EBEBEB"/><ellipse cx="142.553" cy="52.44" rx="2.053" ry="2.444" fill="#EBEBEB"/><ellipse cx="155.272" cy="52.44" rx="2.053" ry="2.444" fill="#EBEBEB"/><ellipse cx="167.991" cy="52.44" rx="2.053" ry="2.444" fill="#EBEBEB"/><ellipse cx="180.71" cy="52.44" rx="2.053" ry="2.444" fill="#EBEBEB"/><ellipse cx="193.43" cy="52.44" rx="2.053" ry="2.444" fill="#EBEBEB"/><ellipse cx="206.149" cy="52.44" rx="2.053" ry="2.444" fill="#EBEBEB"/><ellipse cx="218.868" cy="52.44" rx="2.053" ry="2.444" fill="#EBEBEB"/><ellipse cx="231.587" cy="52.44" rx="2.053" ry="2.444" fill="#EBEBEB"/><ellipse cx="244.306" cy="52.44" rx="2.053" ry="2.444" fill="#EBEBEB"/><ellipse cx="2.643" cy="69.084" rx="2.053" ry="2.444" fill="#EBEBEB"/><ellipse cx="15.362" cy="69.084" rx="2.053" ry="2.444" fill="#EBEBEB"/><ellipse cx="28.081" cy="69.084" rx="2.053" ry="2.444" fill="#EBEBEB"/><ellipse cx="40.8" cy="69.084" rx="2.053" ry="2.444" fill="#EBEBEB"/><ellipse cx="53.519" cy="69.084" rx="2.053" ry="2.444" fill="#EBEBEB"/><ellipse cx="66.239" cy="69.084" rx="2.053" ry="2.444" fill="#EBEBEB"/><ellipse cx="78.958" cy="69.084" rx="2.053" ry="2.444" fill="#EBEBEB"/><ellipse cx="91.677" cy="69.084" rx="2.053" ry="2.444" fill="#EBEBEB"/><ellipse cx="104.396" cy="69.084" rx="2.053" ry="2.444" fill="#EBEBEB"/><ellipse cx="117.115" cy="69.084" rx="2.053" ry="2.444" fill="#EBEBEB"/><ellipse cx="129.834" cy="69.084" rx="2.053" ry="2.444" fill="#EBEBEB"/><ellipse cx="142.553" cy="69.084" rx="2.053" ry="2.444" fill="#EBEBEB"/><ellipse cx="155.272" cy="69.084" rx="2.053" ry="2.444" fill="#EBEBEB"/><ellipse cx="167.991" cy="69.084" rx="2.053" ry="2.444" fill="#EBEBEB"/><ellipse cx="180.71" cy="69.084" rx="2.053" ry="2.444" fill="#EBEBEB"/><ellipse cx="193.43" cy="69.084" rx="2.053" ry="2.444" fill="#EBEBEB"/><ellipse cx="206.149" cy="69.084" rx="2.053" ry="2.444" fill="#EBEBEB"/><ellipse cx="218.868" cy="69.084" rx="2.053" ry="2.444" fill="#EBEBEB"/><ellipse cx="231.587" cy="69.084" rx="2.053" ry="2.444" fill="#EBEBEB"/><ellipse cx="244.306" cy="69.084" rx="2.053" ry="2.444" fill="#EBEBEB"/><ellipse cx="2.643" cy="85.728" rx="2.053" ry="2.444" fill="#EBEBEB"/><ellipse cx="15.362" cy="85.728" rx="2.053" ry="2.444" fill="#EBEBEB"/><ellipse cx="28.081" cy="85.728" rx="2.053" ry="2.444" fill="#EBEBEB"/><ellipse cx="40.8" cy="85.728" rx="2.053" ry="2.444" fill="#EBEBEB"/><ellipse cx="53.519" cy="85.728" rx="2.053" ry="2.444" fill="#EBEBEB"/><ellipse cx="66.239" cy="85.728" rx="2.053" ry="2.444" fill="#EBEBEB"/><ellipse cx="78.958" cy="85.728" rx="2.053" ry="2.444" fill="#EBEBEB"/><ellipse cx="91.677" cy="85.728" rx="2.053" ry="2.444" fill="#EBEBEB"/><ellipse cx="104.396" cy="85.728" rx="2.053" ry="2.444" fill="#EBEBEB"/><ellipse cx="117.115" cy="85.728" rx="2.053" ry="2.444" fill="#EBEBEB"/><ellipse cx="129.834" cy="85.728" rx="2.053" ry="2.444" fill="#EBEBEB"/><ellipse cx="142.553" cy="85.728" rx="2.053" ry="2.444" fill="#EBEBEB"/><ellipse cx="155.272" cy="85.728" rx="2.053" ry="2.444" fill="#EBEBEB"/><ellipse cx="167.991" cy="85.728" rx="2.053" ry="2.444" fill="#EBEBEB"/><ellipse cx="180.71" cy="85.728" rx="2.053" ry="2.444" fill="#EBEBEB"/><ellipse cx="193.43" cy="85.728" rx="2.053" ry="2.444" fill="#EBEBEB"/><ellipse cx="206.149" cy="85.728" rx="2.053" ry="2.444" fill="#EBEBEB"/><ellipse cx="218.868" cy="85.728" rx="2.053" ry="2.444" fill="#EBEBEB"/><ellipse cx="231.587" cy="85.728" rx="2.053" ry="2.444" fill="#EBEBEB"/><ellipse cx="244.306" cy="85.728" rx="2.053" ry="2.444" fill="#EBEBEB"/><ellipse cx="2.643" cy="102.371" rx="2.053" ry="2.444" fill="#EBEBEB"/><ellipse cx="15.362" cy="102.371" rx="2.053" ry="2.444" fill="#EBEBEB"/><ellipse cx="28.081" cy="102.371" rx="2.053" ry="2.444" fill="#EBEBEB"/><ellipse cx="40.8" cy="102.371" rx="2.053" ry="2.444" fill="#EBEBEB"/><ellipse cx="53.519" cy="102.371" rx="2.053" ry="2.444" fill="#EBEBEB"/><ellipse cx="66.239" cy="102.371" rx="2.053" ry="2.444" fill="#EBEBEB"/><ellipse cx="78.958" cy="102.371" rx="2.053" ry="2.444" fill="#EBEBEB"/><ellipse cx="91.677" cy="102.371" rx="2.053" ry="2.444" fill="#EBEBEB"/><ellipse cx="104.396" cy="102.371" rx="2.053" ry="2.444" fill="#EBEBEB"/><ellipse cx="117.115" cy="102.371" rx="2.053" ry="2.444" fill="#EBEBEB"/><ellipse cx="129.834" cy="102.371" rx="2.053" ry="2.444" fill="#EBEBEB"/><ellipse cx="142.553" cy="102.371" rx="2.053" ry="2.444" fill="#EBEBEB"/><ellipse cx="155.272" cy="102.371" rx="2.053" ry="2.444" fill="#EBEBEB"/><ellipse cx="167.991" cy="102.371" rx="2.053" ry="2.444" fill="#EBEBEB"/><ellipse cx="180.71" cy="102.371" rx="2.053" ry="2.444" fill="#EBEBEB"/><ellipse cx="193.43" cy="102.371" rx="2.053" ry="2.444" fill="#EBEBEB"/><ellipse cx="206.149" cy="102.371" rx="2.053" ry="2.444" fill="#EBEBEB"/><ellipse cx="218.868" cy="102.371" rx="2.053" ry="2.444" fill="#EBEBEB"/><ellipse cx="231.587" cy="102.371" rx="2.053" ry="2.444" fill="#EBEBEB"/><ellipse cx="244.306" cy="102.371" rx="2.053" ry="2.444" fill="#EBEBEB"/><ellipse cx="2.643" cy="119.015" rx="2.053" ry="2.444" fill="#EBEBEB"/><ellipse cx="15.362" cy="119.015" rx="2.053" ry="2.444" fill="#EBEBEB"/><ellipse cx="28.081" cy="119.015" rx="2.053" ry="2.444" fill="#EBEBEB"/><ellipse cx="40.8" cy="119.015" rx="2.053" ry="2.444" fill="#EBEBEB"/><ellipse cx="53.519" cy="119.015" rx="2.053" ry="2.444" fill="#EBEBEB"/><ellipse cx="66.239" cy="119.015" rx="2.053" ry="2.444" fill="#EBEBEB"/><ellipse cx="78.958" cy="119.015" rx="2.053" ry="2.444" fill="#EBEBEB"/><ellipse cx="91.677" cy="119.015" rx="2.053" ry="2.444" fill="#EBEBEB"/><ellipse cx="104.396" cy="119.015" rx="2.053" ry="2.444" fill="#EBEBEB"/><ellipse cx="117.115" cy="119.015" rx="2.053" ry="2.444" fill="#EBEBEB"/><ellipse cx="129.834" cy="119.015" rx="2.053" ry="2.444" fill="#EBEBEB"/><ellipse cx="142.553" cy="119.015" rx="2.053" ry="2.444" fill="#EBEBEB"/><ellipse cx="155.272" cy="119.015" rx="2.053" ry="2.444" fill="#EBEBEB"/><ellipse cx="167.991" cy="119.015" rx="2.053" ry="2.444" fill="#EBEBEB"/><ellipse cx="180.71" cy="119.015" rx="2.053" ry="2.444" fill="#EBEBEB"/><ellipse cx="193.43" cy="119.015" rx="2.053" ry="2.444" fill="#EBEBEB"/><ellipse cx="206.149" cy="119.015" rx="2.053" ry="2.444" fill="#EBEBEB"/><ellipse cx="218.868" cy="119.015" rx="2.053" ry="2.444" fill="#EBEBEB"/><ellipse cx="231.587" cy="119.015" rx="2.053" ry="2.444" fill="#EBEBEB"/><ellipse cx="244.306" cy="119.015" rx="2.053" ry="2.444" fill="#EBEBEB"/><ellipse cx="2.643" cy="135.659" rx="2.053" ry="2.444" fill="#EBEBEB"/><ellipse cx="15.362" cy="135.659" rx="2.053" ry="2.444" fill="#EBEBEB"/><ellipse cx="28.081" cy="135.659" rx="2.053" ry="2.444" fill="#EBEBEB"/><ellipse cx="40.8" cy="135.659" rx="2.053" ry="2.444" fill="#EBEBEB"/><ellipse cx="53.519" cy="135.659" rx="2.053" ry="2.444" fill="#EBEBEB"/><ellipse cx="66.239" cy="135.659" rx="2.053" ry="2.444" fill="#EBEBEB"/><ellipse cx="78.958" cy="135.659" rx="2.053" ry="2.444" fill="#EBEBEB"/><ellipse cx="91.677" cy="135.659" rx="2.053" ry="2.444" fill="#EBEBEB"/><ellipse cx="104.396" cy="135.659" rx="2.053" ry="2.444" fill="#EBEBEB"/><ellipse cx="117.115" cy="135.659" rx="2.053" ry="2.444" fill="#EBEBEB"/><ellipse cx="129.834" cy="135.659" rx="2.053" ry="2.444" fill="#EBEBEB"/><ellipse cx="142.553" cy="135.659" rx="2.053" ry="2.444" fill="#EBEBEB"/><ellipse cx="155.272" cy="135.659" rx="2.053" ry="2.444" fill="#EBEBEB"/><ellipse cx="167.991" cy="135.659" rx="2.053" ry="2.444" fill="#EBEBEB"/><ellipse cx="180.71" cy="135.659" rx="2.053" ry="2.444" fill="#EBEBEB"/><ellipse cx="193.43" cy="135.659" rx="2.053" ry="2.444" fill="#EBEBEB"/><ellipse cx="206.149" cy="135.659" rx="2.053" ry="2.444" fill="#EBEBEB"/><ellipse cx="218.868" cy="135.659" rx="2.053" ry="2.444" fill="#EBEBEB"/><ellipse cx="231.587" cy="135.659" rx="2.053" ry="2.444" fill="#EBEBEB"/><ellipse cx="244.306" cy="135.659" rx="2.053" ry="2.444" fill="#EBEBEB"/><ellipse cx="2.643" cy="152.303" rx="2.053" ry="2.444" fill="#EBEBEB"/><ellipse cx="15.362" cy="152.303" rx="2.053" ry="2.444" fill="#EBEBEB"/><ellipse cx="28.081" cy="152.303" rx="2.053" ry="2.444" fill="#EBEBEB"/><ellipse cx="40.8" cy="152.303" rx="2.053" ry="2.444" fill="#EBEBEB"/><ellipse cx="53.519" cy="152.303" rx="2.053" ry="2.444" fill="#EBEBEB"/><ellipse cx="66.239" cy="152.303" rx="2.053" ry="2.444" fill="#EBEBEB"/><ellipse cx="78.958" cy="152.303" rx="2.053" ry="2.444" fill="#EBEBEB"/><ellipse cx="91.677" cy="152.303" rx="2.053" ry="2.444" fill="#EBEBEB"/><ellipse cx="104.396" cy="152.303" rx="2.053" ry="2.444" fill="#EBEBEB"/><ellipse cx="117.115" cy="152.303" rx="2.053" ry="2.444" fill="#EBEBEB"/><ellipse cx="129.834" cy="152.303" rx="2.053" ry="2.444" fill="#EBEBEB"/><ellipse cx="142.553" cy="152.303" rx="2.053" ry="2.444" fill="#EBEBEB"/><ellipse cx="155.272" cy="152.303" rx="2.053" ry="2.444" fill="#EBEBEB"/><ellipse cx="167.991" cy="152.303" rx="2.053" ry="2.444" fill="#EBEBEB"/><ellipse cx="180.71" cy="152.303" rx="2.053" ry="2.444" fill="#EBEBEB"/><ellipse cx="193.43" cy="152.303" rx="2.053" ry="2.444" fill="#EBEBEB"/><ellipse cx="206.149" cy="152.303" rx="2.053" ry="2.444" fill="#EBEBEB"/><ellipse cx="218.868" cy="152.303" rx="2.053" ry="2.444" fill="#EBEBEB"/><ellipse cx="231.587" cy="152.303" rx="2.053" ry="2.444" fill="#EBEBEB"/><ellipse cx="244.306" cy="152.303" rx="2.053" ry="2.444" fill="#EBEBEB"/><ellipse cx="2.643" cy="168.947" rx="2.053" ry="2.444" fill="#EBEBEB"/><ellipse cx="15.362" cy="168.947" rx="2.053" ry="2.444" fill="#EBEBEB"/><ellipse cx="28.081" cy="168.947" rx="2.053" ry="2.444" fill="#EBEBEB"/><ellipse cx="40.8" cy="168.947" rx="2.053" ry="2.444" fill="#EBEBEB"/><ellipse cx="53.519" cy="168.947" rx="2.053" ry="2.444" fill="#EBEBEB"/><ellipse cx="66.239" cy="168.947" rx="2.053" ry="2.444" fill="#EBEBEB"/><ellipse cx="78.958" cy="168.947" rx="2.053" ry="2.444" fill="#EBEBEB"/><ellipse cx="91.677" cy="168.947" rx="2.053" ry="2.444" fill="#EBEBEB"/><ellipse cx="104.396" cy="168.947" rx="2.053" ry="2.444" fill="#EBEBEB"/><ellipse cx="117.115" cy="168.947" rx="2.053" ry="2.444" fill="#EBEBEB"/><ellipse cx="129.834" cy="168.947" rx="2.053" ry="2.444" fill="#EBEBEB"/><ellipse cx="142.553" cy="168.947" rx="2.053" ry="2.444" fill="#EBEBEB"/><ellipse cx="155.272" cy="168.947" rx="2.053" ry="2.444" fill="#EBEBEB"/><ellipse cx="167.991" cy="168.947" rx="2.053" ry="2.444" fill="#EBEBEB"/><ellipse cx="180.71" cy="168.947" rx="2.053" ry="2.444" fill="#EBEBEB"/><ellipse cx="193.43" cy="168.947" rx="2.053" ry="2.444" fill="#EBEBEB"/><ellipse cx="206.149" cy="168.947" rx="2.053" ry="2.444" fill="#EBEBEB"/><ellipse cx="218.868" cy="168.947" rx="2.053" ry="2.444" fill="#EBEBEB"/><ellipse cx="231.587" cy="168.947" rx="2.053" ry="2.444" fill="#EBEBEB"/><ellipse cx="244.306" cy="168.947" rx="2.053" ry="2.444" fill="#EBEBEB"/><ellipse cx="2.643" cy="185.59" rx="2.053" ry="2.444" fill="#EBEBEB"/><ellipse cx="15.362" cy="185.59" rx="2.053" ry="2.444" fill="#EBEBEB"/><ellipse cx="28.081" cy="185.59" rx="2.053" ry="2.444" fill="#EBEBEB"/><ellipse cx="40.8" cy="185.59" rx="2.053" ry="2.444" fill="#EBEBEB"/><ellipse cx="53.519" cy="185.59" rx="2.053" ry="2.444" fill="#EBEBEB"/><ellipse cx="66.239" cy="185.59" rx="2.053" ry="2.444" fill="#EBEBEB"/><ellipse cx="78.958" cy="185.59" rx="2.053" ry="2.444" fill="#EBEBEB"/><ellipse cx="91.677" cy="185.59" rx="2.053" ry="2.444" fill="#EBEBEB"/><ellipse cx="104.396" cy="185.59" rx="2.053" ry="2.444" fill="#EBEBEB"/><ellipse cx="117.115" cy="185.59" rx="2.053" ry="2.444" fill="#EBEBEB"/><ellipse cx="129.834" cy="185.59" rx="2.053" ry="2.444" fill="#EBEBEB"/><ellipse cx="142.553" cy="185.59" rx="2.053" ry="2.444" fill="#EBEBEB"/><ellipse cx="155.272" cy="185.59" rx="2.053" ry="2.444" fill="#EBEBEB"/><ellipse cx="167.991" cy="185.59" rx="2.053" ry="2.444" fill="#EBEBEB"/><ellipse cx="180.71" cy="185.59" rx="2.053" ry="2.444" fill="#EBEBEB"/><ellipse cx="193.43" cy="185.59" rx="2.053" ry="2.444" fill="#EBEBEB"/><ellipse cx="206.149" cy="185.59" rx="2.053" ry="2.444" fill="#EBEBEB"/><ellipse cx="218.868" cy="185.59" rx="2.053" ry="2.444" fill="#EBEBEB"/><ellipse cx="231.587" cy="185.59" rx="2.053" ry="2.444" fill="#EBEBEB"/><ellipse cx="244.306" cy="185.59" rx="2.053" ry="2.444" fill="#EBEBEB"/><ellipse cx="2.643" cy="202.234" rx="2.053" ry="2.444" fill="#EBEBEB"/><ellipse cx="15.362" cy="202.234" rx="2.053" ry="2.444" fill="#EBEBEB"/><ellipse cx="28.081" cy="202.234" rx="2.053" ry="2.444" fill="#EBEBEB"/><ellipse cx="40.8" cy="202.234" rx="2.053" ry="2.444" fill="#EBEBEB"/><ellipse cx="53.519" cy="202.234" rx="2.053" ry="2.444" fill="#EBEBEB"/><ellipse cx="66.239" cy="202.234" rx="2.053" ry="2.444" fill="#EBEBEB"/><ellipse cx="78.958" cy="202.234" rx="2.053" ry="2.444" fill="#EBEBEB"/><ellipse cx="91.677" cy="202.234" rx="2.053" ry="2.444" fill="#EBEBEB"/><ellipse cx="104.396" cy="202.234" rx="2.053" ry="2.444" fill="#EBEBEB"/><ellipse cx="117.115" cy="202.234" rx="2.053" ry="2.444" fill="#EBEBEB"/><ellipse cx="129.834" cy="202.234" rx="2.053" ry="2.444" fill="#EBEBEB"/><ellipse cx="142.553" cy="202.234" rx="2.053" ry="2.444" fill="#EBEBEB"/><ellipse cx="155.272" cy="202.234" rx="2.053" ry="2.444" fill="#EBEBEB"/><ellipse cx="167.991" cy="202.234" rx="2.053" ry="2.444" fill="#EBEBEB"/><ellipse cx="180.71" cy="202.234" rx="2.053" ry="2.444" fill="#EBEBEB"/><ellipse cx="193.43" cy="202.234" rx="2.053" ry="2.444" fill="#EBEBEB"/><ellipse cx="206.149" cy="202.234" rx="2.053" ry="2.444" fill="#EBEBEB"/><ellipse cx="218.868" cy="202.234" rx="2.053" ry="2.444" fill="#EBEBEB"/><ellipse cx="231.587" cy="202.234" rx="2.053" ry="2.444" fill="#EBEBEB"/><ellipse cx="244.306" cy="202.234" rx="2.053" ry="2.444" fill="#EBEBEB"/><ellipse cx="2.643" cy="218.878" rx="2.053" ry="2.444" fill="#EBEBEB"/><ellipse cx="15.362" cy="218.878" rx="2.053" ry="2.444" fill="#EBEBEB"/><ellipse cx="28.081" cy="218.878" rx="2.053" ry="2.444" fill="#EBEBEB"/><ellipse cx="40.8" cy="218.878" rx="2.053" ry="2.444" fill="#EBEBEB"/><ellipse cx="53.519" cy="218.878" rx="2.053" ry="2.444" fill="#EBEBEB"/><ellipse cx="66.239" cy="218.878" rx="2.053" ry="2.444" fill="#EBEBEB"/><ellipse cx="78.958" cy="218.878" rx="2.053" ry="2.444" fill="#EBEBEB"/><ellipse cx="91.677" cy="218.878" rx="2.053" ry="2.444" fill="#EBEBEB"/><ellipse cx="104.396" cy="218.878" rx="2.053" ry="2.444" fill="#EBEBEB"/><ellipse cx="117.115" cy="218.878" rx="2.053" ry="2.444" fill="#EBEBEB"/><ellipse cx="129.834" cy="218.878" rx="2.053" ry="2.444" fill="#EBEBEB"/><ellipse cx="142.553" cy="218.878" rx="2.053" ry="2.444" fill="#EBEBEB"/><ellipse cx="155.272" cy="218.878" rx="2.053" ry="2.444" fill="#EBEBEB"/><ellipse cx="167.991" cy="218.878" rx="2.053" ry="2.444" fill="#EBEBEB"/><ellipse cx="180.71" cy="218.878" rx="2.053" ry="2.444" fill="#EBEBEB"/><ellipse cx="193.43" cy="218.878" rx="2.053" ry="2.444" fill="#EBEBEB"/><ellipse cx="206.149" cy="218.878" rx="2.053" ry="2.444" fill="#EBEBEB"/><ellipse cx="218.868" cy="218.878" rx="2.053" ry="2.444" fill="#EBEBEB"/><ellipse cx="231.587" cy="218.878" rx="2.053" ry="2.444" fill="#EBEBEB"/><ellipse cx="244.306" cy="218.878" rx="2.053" ry="2.444" fill="#EBEBEB"/><ellipse cx="2.643" cy="235.522" rx="2.053" ry="2.444" fill="#EBEBEB"/><ellipse cx="15.362" cy="235.522" rx="2.053" ry="2.444" fill="#EBEBEB"/><ellipse cx="28.081" cy="235.522" rx="2.053" ry="2.444" fill="#EBEBEB"/><ellipse cx="40.8" cy="235.522" rx="2.053" ry="2.444" fill="#EBEBEB"/><ellipse cx="53.519" cy="235.522" rx="2.053" ry="2.444" fill="#EBEBEB"/><ellipse cx="66.239" cy="235.522" rx="2.053" ry="2.444" fill="#EBEBEB"/><ellipse cx="78.958" cy="235.522" rx="2.053" ry="2.444" fill="#EBEBEB"/><ellipse cx="91.677" cy="235.522" rx="2.053" ry="2.444" fill="#EBEBEB"/><ellipse cx="104.396" cy="235.522" rx="2.053" ry="2.444" fill="#EBEBEB"/><ellipse cx="117.115" cy="235.522" rx="2.053" ry="2.444" fill="#EBEBEB"/><ellipse cx="129.834" cy="235.522" rx="2.053" ry="2.444" fill="#EBEBEB"/><ellipse cx="142.553" cy="235.522" rx="2.053" ry="2.444" fill="#EBEBEB"/><ellipse cx="155.272" cy="235.522" rx="2.053" ry="2.444" fill="#EBEBEB"/><ellipse cx="167.991" cy="235.522" rx="2.053" ry="2.444" fill="#EBEBEB"/><ellipse cx="180.71" cy="235.522" rx="2.053" ry="2.444" fill="#EBEBEB"/><ellipse cx="193.43" cy="235.522" rx="2.053" ry="2.444" fill="#EBEBEB"/><ellipse cx="206.149" cy="235.522" rx="2.053" ry="2.444" fill="#EBEBEB"/><ellipse cx="218.868" cy="235.522" rx="2.053" ry="2.444" fill="#EBEBEB"/><ellipse cx="231.587" cy="235.522" rx="2.053" ry="2.444" fill="#EBEBEB"/><ellipse cx="244.306" cy="235.522" rx="2.053" ry="2.444" fill="#EBEBEB"/><ellipse cx="2.643" cy="252.166" rx="2.053" ry="2.444" fill="#EBEBEB"/><ellipse cx="15.362" cy="252.166" rx="2.053" ry="2.444" fill="#EBEBEB"/><ellipse cx="28.081" cy="252.166" rx="2.053" ry="2.444" fill="#EBEBEB"/><ellipse cx="40.8" cy="252.166" rx="2.053" ry="2.444" fill="#EBEBEB"/><ellipse cx="53.519" cy="252.166" rx="2.053" ry="2.444" fill="#EBEBEB"/><ellipse cx="66.239" cy="252.166" rx="2.053" ry="2.444" fill="#EBEBEB"/><ellipse cx="78.958" cy="252.166" rx="2.053" ry="2.444" fill="#EBEBEB"/><ellipse cx="91.677" cy="252.166" rx="2.053" ry="2.444" fill="#EBEBEB"/><ellipse cx="104.396" cy="252.166" rx="2.053" ry="2.444" fill="#EBEBEB"/><ellipse cx="117.115" cy="252.166" rx="2.053" ry="2.444" fill="#EBEBEB"/><ellipse cx="129.834" cy="252.166" rx="2.053" ry="2.444" fill="#EBEBEB"/><ellipse cx="142.553" cy="252.166" rx="2.053" ry="2.444" fill="#EBEBEB"/><ellipse cx="155.272" cy="252.166" rx="2.053" ry="2.444" fill="#EBEBEB"/><ellipse cx="167.991" cy="252.166" rx="2.053" ry="2.444" fill="#EBEBEB"/><ellipse cx="180.71" cy="252.166" rx="2.053" ry="2.444" fill="#EBEBEB"/><ellipse cx="193.43" cy="252.166" rx="2.053" ry="2.444" fill="#EBEBEB"/><ellipse cx="206.149" cy="252.166" rx="2.053" ry="2.444" fill="#EBEBEB"/><ellipse cx="218.868" cy="252.166" rx="2.053" ry="2.444" fill="#EBEBEB"/><ellipse cx="231.587" cy="252.166" rx="2.053" ry="2.444" fill="#EBEBEB"/><ellipse cx="244.306" cy="252.166" rx="2.053" ry="2.444" fill="#EBEBEB"/></svg>