<svg width="213" height="152" fill="none" xmlns="http://www.w3.org/2000/svg"><ellipse cx="2.357" cy="2.469" rx="1.773" ry="1.739" fill="#EBEBEB"/><ellipse cx="13.34" cy="2.469" rx="1.773" ry="1.739" fill="#EBEBEB"/><ellipse cx="24.322" cy="2.469" rx="1.773" ry="1.739" fill="#EBEBEB"/><ellipse cx="35.304" cy="2.469" rx="1.773" ry="1.739" fill="#EBEBEB"/><ellipse cx="46.286" cy="2.469" rx="1.773" ry="1.739" fill="#EBEBEB"/><ellipse cx="57.269" cy="2.469" rx="1.773" ry="1.739" fill="#EBEBEB"/><ellipse cx="68.251" cy="2.469" rx="1.773" ry="1.739" fill="#EBEBEB"/><ellipse cx="79.233" cy="2.469" rx="1.773" ry="1.739" fill="#EBEBEB"/><ellipse cx="90.216" cy="2.469" rx="1.773" ry="1.739" fill="#EBEBEB"/><ellipse cx="101.198" cy="2.469" rx="1.773" ry="1.739" fill="#EBEBEB"/><ellipse cx="112.18" cy="2.469" rx="1.773" ry="1.739" fill="#EBEBEB"/><ellipse cx="123.163" cy="2.469" rx="1.773" ry="1.739" fill="#EBEBEB"/><ellipse cx="134.145" cy="2.469" rx="1.773" ry="1.739" fill="#EBEBEB"/><ellipse cx="145.127" cy="2.469" rx="1.773" ry="1.739" fill="#EBEBEB"/><ellipse cx="156.109" cy="2.469" rx="1.773" ry="1.739" fill="#EBEBEB"/><ellipse cx="167.092" cy="2.469" rx="1.773" ry="1.739" fill="#EBEBEB"/><ellipse cx="178.074" cy="2.469" rx="1.773" ry="1.739" fill="#EBEBEB"/><ellipse cx="189.056" cy="2.469" rx="1.773" ry="1.739" fill="#EBEBEB"/><ellipse cx="200.039" cy="2.469" rx="1.773" ry="1.739" fill="#EBEBEB"/><ellipse cx="211.021" cy="2.469" rx="1.773" ry="1.739" fill="#EBEBEB"/><ellipse cx="2.357" cy="12.265" rx="1.773" ry="1.739" fill="#EBEBEB"/><ellipse cx="13.34" cy="12.265" rx="1.773" ry="1.739" fill="#EBEBEB"/><ellipse cx="24.322" cy="12.265" rx="1.773" ry="1.739" fill="#EBEBEB"/><ellipse cx="35.304" cy="12.265" rx="1.773" ry="1.739" fill="#EBEBEB"/><ellipse cx="46.286" cy="12.265" rx="1.773" ry="1.739" fill="#EBEBEB"/><ellipse cx="57.269" cy="12.265" rx="1.773" ry="1.739" fill="#EBEBEB"/><ellipse cx="68.251" cy="12.265" rx="1.773" ry="1.739" fill="#EBEBEB"/><ellipse cx="79.233" cy="12.265" rx="1.773" ry="1.739" fill="#EBEBEB"/><ellipse cx="90.216" cy="12.265" rx="1.773" ry="1.739" fill="#EBEBEB"/><ellipse cx="101.198" cy="12.265" rx="1.773" ry="1.739" fill="#EBEBEB"/><ellipse cx="112.18" cy="12.265" rx="1.773" ry="1.739" fill="#EBEBEB"/><ellipse cx="123.163" cy="12.265" rx="1.773" ry="1.739" fill="#EBEBEB"/><ellipse cx="134.145" cy="12.265" rx="1.773" ry="1.739" fill="#EBEBEB"/><ellipse cx="145.127" cy="12.265" rx="1.773" ry="1.739" fill="#EBEBEB"/><ellipse cx="156.109" cy="12.265" rx="1.773" ry="1.739" fill="#EBEBEB"/><ellipse cx="167.092" cy="12.265" rx="1.773" ry="1.739" fill="#EBEBEB"/><ellipse cx="178.074" cy="12.265" rx="1.773" ry="1.739" fill="#EBEBEB"/><ellipse cx="189.056" cy="12.265" rx="1.773" ry="1.739" fill="#EBEBEB"/><ellipse cx="200.039" cy="12.265" rx="1.773" ry="1.739" fill="#EBEBEB"/><ellipse cx="211.021" cy="12.265" rx="1.773" ry="1.739" fill="#EBEBEB"/><ellipse cx="2.357" cy="22.061" rx="1.773" ry="1.739" fill="#EBEBEB"/><ellipse cx="13.34" cy="22.061" rx="1.773" ry="1.739" fill="#EBEBEB"/><ellipse cx="24.322" cy="22.061" rx="1.773" ry="1.739" fill="#EBEBEB"/><ellipse cx="35.304" cy="22.061" rx="1.773" ry="1.739" fill="#EBEBEB"/><ellipse cx="46.286" cy="22.061" rx="1.773" ry="1.739" fill="#EBEBEB"/><ellipse cx="57.269" cy="22.061" rx="1.773" ry="1.739" fill="#EBEBEB"/><ellipse cx="68.251" cy="22.061" rx="1.773" ry="1.739" fill="#EBEBEB"/><ellipse cx="79.233" cy="22.061" rx="1.773" ry="1.739" fill="#EBEBEB"/><ellipse cx="90.216" cy="22.061" rx="1.773" ry="1.739" fill="#EBEBEB"/><ellipse cx="101.198" cy="22.061" rx="1.773" ry="1.739" fill="#EBEBEB"/><ellipse cx="112.18" cy="22.061" rx="1.773" ry="1.739" fill="#EBEBEB"/><ellipse cx="123.163" cy="22.061" rx="1.773" ry="1.739" fill="#EBEBEB"/><ellipse cx="134.145" cy="22.061" rx="1.773" ry="1.739" fill="#EBEBEB"/><ellipse cx="145.127" cy="22.061" rx="1.773" ry="1.739" fill="#EBEBEB"/><ellipse cx="156.109" cy="22.061" rx="1.773" ry="1.739" fill="#EBEBEB"/><ellipse cx="167.092" cy="22.061" rx="1.773" ry="1.739" fill="#EBEBEB"/><ellipse cx="178.074" cy="22.061" rx="1.773" ry="1.739" fill="#EBEBEB"/><ellipse cx="189.056" cy="22.061" rx="1.773" ry="1.739" fill="#EBEBEB"/><ellipse cx="200.039" cy="22.061" rx="1.773" ry="1.739" fill="#EBEBEB"/><ellipse cx="211.021" cy="22.061" rx="1.773" ry="1.739" fill="#EBEBEB"/><ellipse cx="2.357" cy="31.857" rx="1.773" ry="1.739" fill="#EBEBEB"/><ellipse cx="13.34" cy="31.857" rx="1.773" ry="1.739" fill="#EBEBEB"/><ellipse cx="24.322" cy="31.857" rx="1.773" ry="1.739" fill="#EBEBEB"/><ellipse cx="35.304" cy="31.857" rx="1.773" ry="1.739" fill="#EBEBEB"/><ellipse cx="46.286" cy="31.857" rx="1.773" ry="1.739" fill="#EBEBEB"/><ellipse cx="57.269" cy="31.857" rx="1.773" ry="1.739" fill="#EBEBEB"/><ellipse cx="68.251" cy="31.857" rx="1.773" ry="1.739" fill="#EBEBEB"/><ellipse cx="79.233" cy="31.857" rx="1.773" ry="1.739" fill="#EBEBEB"/><ellipse cx="90.216" cy="31.857" rx="1.773" ry="1.739" fill="#EBEBEB"/><ellipse cx="101.198" cy="31.857" rx="1.773" ry="1.739" fill="#EBEBEB"/><ellipse cx="112.18" cy="31.857" rx="1.773" ry="1.739" fill="#EBEBEB"/><ellipse cx="123.163" cy="31.857" rx="1.773" ry="1.739" fill="#EBEBEB"/><ellipse cx="134.145" cy="31.857" rx="1.773" ry="1.739" fill="#EBEBEB"/><ellipse cx="145.127" cy="31.857" rx="1.773" ry="1.739" fill="#EBEBEB"/><ellipse cx="156.109" cy="31.857" rx="1.773" ry="1.739" fill="#EBEBEB"/><ellipse cx="167.092" cy="31.857" rx="1.773" ry="1.739" fill="#EBEBEB"/><ellipse cx="178.074" cy="31.857" rx="1.773" ry="1.739" fill="#EBEBEB"/><ellipse cx="189.056" cy="31.857" rx="1.773" ry="1.739" fill="#EBEBEB"/><ellipse cx="200.039" cy="31.857" rx="1.773" ry="1.739" fill="#EBEBEB"/><ellipse cx="211.021" cy="31.857" rx="1.773" ry="1.739" fill="#EBEBEB"/><ellipse cx="2.357" cy="41.653" rx="1.773" ry="1.739" fill="#EBEBEB"/><ellipse cx="13.34" cy="41.653" rx="1.773" ry="1.739" fill="#EBEBEB"/><ellipse cx="24.322" cy="41.653" rx="1.773" ry="1.739" fill="#EBEBEB"/><ellipse cx="35.304" cy="41.653" rx="1.773" ry="1.739" fill="#EBEBEB"/><ellipse cx="46.286" cy="41.653" rx="1.773" ry="1.739" fill="#EBEBEB"/><ellipse cx="57.269" cy="41.653" rx="1.773" ry="1.739" fill="#EBEBEB"/><ellipse cx="68.251" cy="41.653" rx="1.773" ry="1.739" fill="#EBEBEB"/><ellipse cx="79.233" cy="41.653" rx="1.773" ry="1.739" fill="#EBEBEB"/><ellipse cx="90.216" cy="41.653" rx="1.773" ry="1.739" fill="#EBEBEB"/><ellipse cx="101.198" cy="41.653" rx="1.773" ry="1.739" fill="#EBEBEB"/><ellipse cx="112.18" cy="41.653" rx="1.773" ry="1.739" fill="#EBEBEB"/><ellipse cx="123.163" cy="41.653" rx="1.773" ry="1.739" fill="#EBEBEB"/><ellipse cx="134.145" cy="41.653" rx="1.773" ry="1.739" fill="#EBEBEB"/><ellipse cx="145.127" cy="41.653" rx="1.773" ry="1.739" fill="#EBEBEB"/><ellipse cx="156.109" cy="41.653" rx="1.773" ry="1.739" fill="#EBEBEB"/><ellipse cx="167.092" cy="41.653" rx="1.773" ry="1.739" fill="#EBEBEB"/><ellipse cx="178.074" cy="41.653" rx="1.773" ry="1.739" fill="#EBEBEB"/><ellipse cx="189.056" cy="41.653" rx="1.773" ry="1.739" fill="#EBEBEB"/><ellipse cx="200.039" cy="41.653" rx="1.773" ry="1.739" fill="#EBEBEB"/><ellipse cx="211.021" cy="41.653" rx="1.773" ry="1.739" fill="#EBEBEB"/><ellipse cx="2.357" cy="51.449" rx="1.773" ry="1.739" fill="#EBEBEB"/><ellipse cx="13.34" cy="51.449" rx="1.773" ry="1.739" fill="#EBEBEB"/><ellipse cx="24.322" cy="51.449" rx="1.773" ry="1.739" fill="#EBEBEB"/><ellipse cx="35.304" cy="51.449" rx="1.773" ry="1.739" fill="#EBEBEB"/><ellipse cx="46.286" cy="51.449" rx="1.773" ry="1.739" fill="#EBEBEB"/><ellipse cx="57.269" cy="51.449" rx="1.773" ry="1.739" fill="#EBEBEB"/><ellipse cx="68.251" cy="51.449" rx="1.773" ry="1.739" fill="#EBEBEB"/><ellipse cx="79.233" cy="51.449" rx="1.773" ry="1.739" fill="#EBEBEB"/><ellipse cx="90.216" cy="51.449" rx="1.773" ry="1.739" fill="#EBEBEB"/><ellipse cx="101.198" cy="51.449" rx="1.773" ry="1.739" fill="#EBEBEB"/><ellipse cx="112.18" cy="51.449" rx="1.773" ry="1.739" fill="#EBEBEB"/><ellipse cx="123.163" cy="51.449" rx="1.773" ry="1.739" fill="#EBEBEB"/><ellipse cx="134.145" cy="51.449" rx="1.773" ry="1.739" fill="#EBEBEB"/><ellipse cx="145.127" cy="51.449" rx="1.773" ry="1.739" fill="#EBEBEB"/><ellipse cx="156.109" cy="51.449" rx="1.773" ry="1.739" fill="#EBEBEB"/><ellipse cx="167.092" cy="51.449" rx="1.773" ry="1.739" fill="#EBEBEB"/><ellipse cx="178.074" cy="51.449" rx="1.773" ry="1.739" fill="#EBEBEB"/><ellipse cx="189.056" cy="51.449" rx="1.773" ry="1.739" fill="#EBEBEB"/><ellipse cx="200.039" cy="51.449" rx="1.773" ry="1.739" fill="#EBEBEB"/><ellipse cx="211.021" cy="51.449" rx="1.773" ry="1.739" fill="#EBEBEB"/><ellipse cx="2.357" cy="61.245" rx="1.773" ry="1.739" fill="#EBEBEB"/><ellipse cx="13.34" cy="61.245" rx="1.773" ry="1.739" fill="#EBEBEB"/><ellipse cx="24.322" cy="61.245" rx="1.773" ry="1.739" fill="#EBEBEB"/><ellipse cx="35.304" cy="61.245" rx="1.773" ry="1.739" fill="#EBEBEB"/><ellipse cx="46.286" cy="61.245" rx="1.773" ry="1.739" fill="#EBEBEB"/><ellipse cx="57.269" cy="61.245" rx="1.773" ry="1.739" fill="#EBEBEB"/><ellipse cx="68.251" cy="61.245" rx="1.773" ry="1.739" fill="#EBEBEB"/><ellipse cx="79.233" cy="61.245" rx="1.773" ry="1.739" fill="#EBEBEB"/><ellipse cx="90.216" cy="61.245" rx="1.773" ry="1.739" fill="#EBEBEB"/><ellipse cx="101.198" cy="61.245" rx="1.773" ry="1.739" fill="#EBEBEB"/><ellipse cx="112.18" cy="61.245" rx="1.773" ry="1.739" fill="#EBEBEB"/><ellipse cx="123.163" cy="61.245" rx="1.773" ry="1.739" fill="#EBEBEB"/><ellipse cx="134.145" cy="61.245" rx="1.773" ry="1.739" fill="#EBEBEB"/><ellipse cx="145.127" cy="61.245" rx="1.773" ry="1.739" fill="#EBEBEB"/><ellipse cx="156.109" cy="61.245" rx="1.773" ry="1.739" fill="#EBEBEB"/><ellipse cx="167.092" cy="61.245" rx="1.773" ry="1.739" fill="#EBEBEB"/><ellipse cx="178.074" cy="61.245" rx="1.773" ry="1.739" fill="#EBEBEB"/><ellipse cx="189.056" cy="61.245" rx="1.773" ry="1.739" fill="#EBEBEB"/><ellipse cx="200.039" cy="61.245" rx="1.773" ry="1.739" fill="#EBEBEB"/><ellipse cx="211.021" cy="61.245" rx="1.773" ry="1.739" fill="#EBEBEB"/><ellipse cx="2.357" cy="71.04" rx="1.773" ry="1.739" fill="#EBEBEB"/><ellipse cx="13.34" cy="71.04" rx="1.773" ry="1.739" fill="#EBEBEB"/><ellipse cx="24.322" cy="71.04" rx="1.773" ry="1.739" fill="#EBEBEB"/><ellipse cx="35.304" cy="71.04" rx="1.773" ry="1.739" fill="#EBEBEB"/><ellipse cx="46.286" cy="71.04" rx="1.773" ry="1.739" fill="#EBEBEB"/><ellipse cx="57.269" cy="71.04" rx="1.773" ry="1.739" fill="#EBEBEB"/><ellipse cx="68.251" cy="71.04" rx="1.773" ry="1.739" fill="#EBEBEB"/><ellipse cx="79.233" cy="71.04" rx="1.773" ry="1.739" fill="#EBEBEB"/><ellipse cx="90.216" cy="71.04" rx="1.773" ry="1.739" fill="#EBEBEB"/><ellipse cx="101.198" cy="71.04" rx="1.773" ry="1.739" fill="#EBEBEB"/><ellipse cx="112.18" cy="71.04" rx="1.773" ry="1.739" fill="#EBEBEB"/><ellipse cx="123.163" cy="71.04" rx="1.773" ry="1.739" fill="#EBEBEB"/><ellipse cx="134.145" cy="71.04" rx="1.773" ry="1.739" fill="#EBEBEB"/><ellipse cx="145.127" cy="71.04" rx="1.773" ry="1.739" fill="#EBEBEB"/><ellipse cx="156.109" cy="71.04" rx="1.773" ry="1.739" fill="#EBEBEB"/><ellipse cx="167.092" cy="71.04" rx="1.773" ry="1.739" fill="#EBEBEB"/><ellipse cx="178.074" cy="71.04" rx="1.773" ry="1.739" fill="#EBEBEB"/><ellipse cx="189.056" cy="71.04" rx="1.773" ry="1.739" fill="#EBEBEB"/><ellipse cx="200.039" cy="71.04" rx="1.773" ry="1.739" fill="#EBEBEB"/><ellipse cx="211.021" cy="71.04" rx="1.773" ry="1.739" fill="#EBEBEB"/><ellipse cx="2.357" cy="80.837" rx="1.773" ry="1.739" fill="#EBEBEB"/><ellipse cx="13.34" cy="80.837" rx="1.773" ry="1.739" fill="#EBEBEB"/><ellipse cx="24.322" cy="80.837" rx="1.773" ry="1.739" fill="#EBEBEB"/><ellipse cx="35.304" cy="80.837" rx="1.773" ry="1.739" fill="#EBEBEB"/><ellipse cx="46.286" cy="80.837" rx="1.773" ry="1.739" fill="#EBEBEB"/><ellipse cx="57.269" cy="80.837" rx="1.773" ry="1.739" fill="#EBEBEB"/><ellipse cx="68.251" cy="80.837" rx="1.773" ry="1.739" fill="#EBEBEB"/><ellipse cx="79.233" cy="80.837" rx="1.773" ry="1.739" fill="#EBEBEB"/><ellipse cx="90.216" cy="80.837" rx="1.773" ry="1.739" fill="#EBEBEB"/><ellipse cx="101.198" cy="80.837" rx="1.773" ry="1.739" fill="#EBEBEB"/><ellipse cx="112.18" cy="80.837" rx="1.773" ry="1.739" fill="#EBEBEB"/><ellipse cx="123.163" cy="80.837" rx="1.773" ry="1.739" fill="#EBEBEB"/><ellipse cx="134.145" cy="80.837" rx="1.773" ry="1.739" fill="#EBEBEB"/><ellipse cx="145.127" cy="80.837" rx="1.773" ry="1.739" fill="#EBEBEB"/><ellipse cx="156.109" cy="80.837" rx="1.773" ry="1.739" fill="#EBEBEB"/><ellipse cx="167.092" cy="80.837" rx="1.773" ry="1.739" fill="#EBEBEB"/><ellipse cx="178.074" cy="80.837" rx="1.773" ry="1.739" fill="#EBEBEB"/><ellipse cx="189.056" cy="80.837" rx="1.773" ry="1.739" fill="#EBEBEB"/><ellipse cx="200.039" cy="80.837" rx="1.773" ry="1.739" fill="#EBEBEB"/><ellipse cx="211.021" cy="80.837" rx="1.773" ry="1.739" fill="#EBEBEB"/><ellipse cx="2.357" cy="90.632" rx="1.773" ry="1.739" fill="#EBEBEB"/><ellipse cx="13.34" cy="90.632" rx="1.773" ry="1.739" fill="#EBEBEB"/><ellipse cx="24.322" cy="90.632" rx="1.773" ry="1.739" fill="#EBEBEB"/><ellipse cx="35.304" cy="90.632" rx="1.773" ry="1.739" fill="#EBEBEB"/><ellipse cx="46.286" cy="90.632" rx="1.773" ry="1.739" fill="#EBEBEB"/><ellipse cx="57.269" cy="90.632" rx="1.773" ry="1.739" fill="#EBEBEB"/><ellipse cx="68.251" cy="90.632" rx="1.773" ry="1.739" fill="#EBEBEB"/><ellipse cx="79.233" cy="90.632" rx="1.773" ry="1.739" fill="#EBEBEB"/><ellipse cx="90.216" cy="90.632" rx="1.773" ry="1.739" fill="#EBEBEB"/><ellipse cx="101.198" cy="90.632" rx="1.773" ry="1.739" fill="#EBEBEB"/><ellipse cx="112.18" cy="90.632" rx="1.773" ry="1.739" fill="#EBEBEB"/><ellipse cx="123.163" cy="90.632" rx="1.773" ry="1.739" fill="#EBEBEB"/><ellipse cx="134.145" cy="90.632" rx="1.773" ry="1.739" fill="#EBEBEB"/><ellipse cx="145.127" cy="90.632" rx="1.773" ry="1.739" fill="#EBEBEB"/><ellipse cx="156.109" cy="90.632" rx="1.773" ry="1.739" fill="#EBEBEB"/><ellipse cx="167.092" cy="90.632" rx="1.773" ry="1.739" fill="#EBEBEB"/><ellipse cx="178.074" cy="90.632" rx="1.773" ry="1.739" fill="#EBEBEB"/><ellipse cx="189.056" cy="90.632" rx="1.773" ry="1.739" fill="#EBEBEB"/><ellipse cx="200.039" cy="90.632" rx="1.773" ry="1.739" fill="#EBEBEB"/><ellipse cx="211.021" cy="90.632" rx="1.773" ry="1.739" fill="#EBEBEB"/><ellipse cx="2.357" cy="100.428" rx="1.773" ry="1.739" fill="#EBEBEB"/><ellipse cx="13.34" cy="100.428" rx="1.773" ry="1.739" fill="#EBEBEB"/><ellipse cx="24.322" cy="100.428" rx="1.773" ry="1.739" fill="#EBEBEB"/><ellipse cx="35.304" cy="100.428" rx="1.773" ry="1.739" fill="#EBEBEB"/><ellipse cx="46.286" cy="100.428" rx="1.773" ry="1.739" fill="#EBEBEB"/><ellipse cx="57.269" cy="100.428" rx="1.773" ry="1.739" fill="#EBEBEB"/><ellipse cx="68.251" cy="100.428" rx="1.773" ry="1.739" fill="#EBEBEB"/><ellipse cx="79.233" cy="100.428" rx="1.773" ry="1.739" fill="#EBEBEB"/><ellipse cx="90.216" cy="100.428" rx="1.773" ry="1.739" fill="#EBEBEB"/><ellipse cx="101.198" cy="100.428" rx="1.773" ry="1.739" fill="#EBEBEB"/><ellipse cx="112.18" cy="100.428" rx="1.773" ry="1.739" fill="#EBEBEB"/><ellipse cx="123.163" cy="100.428" rx="1.773" ry="1.739" fill="#EBEBEB"/><ellipse cx="134.145" cy="100.428" rx="1.773" ry="1.739" fill="#EBEBEB"/><ellipse cx="145.127" cy="100.428" rx="1.773" ry="1.739" fill="#EBEBEB"/><ellipse cx="156.109" cy="100.428" rx="1.773" ry="1.739" fill="#EBEBEB"/><ellipse cx="167.092" cy="100.428" rx="1.773" ry="1.739" fill="#EBEBEB"/><ellipse cx="178.074" cy="100.428" rx="1.773" ry="1.739" fill="#EBEBEB"/><ellipse cx="189.056" cy="100.428" rx="1.773" ry="1.739" fill="#EBEBEB"/><ellipse cx="200.039" cy="100.428" rx="1.773" ry="1.739" fill="#EBEBEB"/><ellipse cx="211.021" cy="100.428" rx="1.773" ry="1.739" fill="#EBEBEB"/><ellipse cx="2.357" cy="110.224" rx="1.773" ry="1.739" fill="#EBEBEB"/><ellipse cx="13.34" cy="110.224" rx="1.773" ry="1.739" fill="#EBEBEB"/><ellipse cx="24.322" cy="110.224" rx="1.773" ry="1.739" fill="#EBEBEB"/><ellipse cx="35.304" cy="110.224" rx="1.773" ry="1.739" fill="#EBEBEB"/><ellipse cx="46.286" cy="110.224" rx="1.773" ry="1.739" fill="#EBEBEB"/><ellipse cx="57.269" cy="110.224" rx="1.773" ry="1.739" fill="#EBEBEB"/><ellipse cx="68.251" cy="110.224" rx="1.773" ry="1.739" fill="#EBEBEB"/><ellipse cx="79.233" cy="110.224" rx="1.773" ry="1.739" fill="#EBEBEB"/><ellipse cx="90.216" cy="110.224" rx="1.773" ry="1.739" fill="#EBEBEB"/><ellipse cx="101.198" cy="110.224" rx="1.773" ry="1.739" fill="#EBEBEB"/><ellipse cx="112.18" cy="110.224" rx="1.773" ry="1.739" fill="#EBEBEB"/><ellipse cx="123.163" cy="110.224" rx="1.773" ry="1.739" fill="#EBEBEB"/><ellipse cx="134.145" cy="110.224" rx="1.773" ry="1.739" fill="#EBEBEB"/><ellipse cx="145.127" cy="110.224" rx="1.773" ry="1.739" fill="#EBEBEB"/><ellipse cx="156.109" cy="110.224" rx="1.773" ry="1.739" fill="#EBEBEB"/><ellipse cx="167.092" cy="110.224" rx="1.773" ry="1.739" fill="#EBEBEB"/><ellipse cx="178.074" cy="110.224" rx="1.773" ry="1.739" fill="#EBEBEB"/><ellipse cx="189.056" cy="110.224" rx="1.773" ry="1.739" fill="#EBEBEB"/><ellipse cx="200.039" cy="110.224" rx="1.773" ry="1.739" fill="#EBEBEB"/><ellipse cx="211.021" cy="110.224" rx="1.773" ry="1.739" fill="#EBEBEB"/><ellipse cx="2.357" cy="120.02" rx="1.773" ry="1.739" fill="#EBEBEB"/><ellipse cx="13.34" cy="120.02" rx="1.773" ry="1.739" fill="#EBEBEB"/><ellipse cx="24.322" cy="120.02" rx="1.773" ry="1.739" fill="#EBEBEB"/><ellipse cx="35.304" cy="120.02" rx="1.773" ry="1.739" fill="#EBEBEB"/><ellipse cx="46.286" cy="120.02" rx="1.773" ry="1.739" fill="#EBEBEB"/><ellipse cx="57.269" cy="120.02" rx="1.773" ry="1.739" fill="#EBEBEB"/><ellipse cx="68.251" cy="120.02" rx="1.773" ry="1.739" fill="#EBEBEB"/><ellipse cx="79.233" cy="120.02" rx="1.773" ry="1.739" fill="#EBEBEB"/><ellipse cx="90.216" cy="120.02" rx="1.773" ry="1.739" fill="#EBEBEB"/><ellipse cx="101.198" cy="120.02" rx="1.773" ry="1.739" fill="#EBEBEB"/><ellipse cx="112.18" cy="120.02" rx="1.773" ry="1.739" fill="#EBEBEB"/><ellipse cx="123.163" cy="120.02" rx="1.773" ry="1.739" fill="#EBEBEB"/><ellipse cx="134.145" cy="120.02" rx="1.773" ry="1.739" fill="#EBEBEB"/><ellipse cx="145.127" cy="120.02" rx="1.773" ry="1.739" fill="#EBEBEB"/><ellipse cx="156.109" cy="120.02" rx="1.773" ry="1.739" fill="#EBEBEB"/><ellipse cx="167.092" cy="120.02" rx="1.773" ry="1.739" fill="#EBEBEB"/><ellipse cx="178.074" cy="120.02" rx="1.773" ry="1.739" fill="#EBEBEB"/><ellipse cx="189.056" cy="120.02" rx="1.773" ry="1.739" fill="#EBEBEB"/><ellipse cx="200.039" cy="120.02" rx="1.773" ry="1.739" fill="#EBEBEB"/><ellipse cx="211.021" cy="120.02" rx="1.773" ry="1.739" fill="#EBEBEB"/><ellipse cx="2.357" cy="129.816" rx="1.773" ry="1.739" fill="#EBEBEB"/><ellipse cx="13.34" cy="129.816" rx="1.773" ry="1.739" fill="#EBEBEB"/><ellipse cx="24.322" cy="129.816" rx="1.773" ry="1.739" fill="#EBEBEB"/><ellipse cx="35.304" cy="129.816" rx="1.773" ry="1.739" fill="#EBEBEB"/><ellipse cx="46.286" cy="129.816" rx="1.773" ry="1.739" fill="#EBEBEB"/><ellipse cx="57.269" cy="129.816" rx="1.773" ry="1.739" fill="#EBEBEB"/><ellipse cx="68.251" cy="129.816" rx="1.773" ry="1.739" fill="#EBEBEB"/><ellipse cx="79.233" cy="129.816" rx="1.773" ry="1.739" fill="#EBEBEB"/><ellipse cx="90.216" cy="129.816" rx="1.773" ry="1.739" fill="#EBEBEB"/><ellipse cx="101.198" cy="129.816" rx="1.773" ry="1.739" fill="#EBEBEB"/><ellipse cx="112.18" cy="129.816" rx="1.773" ry="1.739" fill="#EBEBEB"/><ellipse cx="123.163" cy="129.816" rx="1.773" ry="1.739" fill="#EBEBEB"/><ellipse cx="134.145" cy="129.816" rx="1.773" ry="1.739" fill="#EBEBEB"/><ellipse cx="145.127" cy="129.816" rx="1.773" ry="1.739" fill="#EBEBEB"/><ellipse cx="156.109" cy="129.816" rx="1.773" ry="1.739" fill="#EBEBEB"/><ellipse cx="167.092" cy="129.816" rx="1.773" ry="1.739" fill="#EBEBEB"/><ellipse cx="178.074" cy="129.816" rx="1.773" ry="1.739" fill="#EBEBEB"/><ellipse cx="189.056" cy="129.816" rx="1.773" ry="1.739" fill="#EBEBEB"/><ellipse cx="200.039" cy="129.816" rx="1.773" ry="1.739" fill="#EBEBEB"/><ellipse cx="211.021" cy="129.816" rx="1.773" ry="1.739" fill="#EBEBEB"/><ellipse cx="2.357" cy="139.612" rx="1.773" ry="1.739" fill="#EBEBEB"/><ellipse cx="13.34" cy="139.612" rx="1.773" ry="1.739" fill="#EBEBEB"/><ellipse cx="24.322" cy="139.612" rx="1.773" ry="1.739" fill="#EBEBEB"/><ellipse cx="35.304" cy="139.612" rx="1.773" ry="1.739" fill="#EBEBEB"/><ellipse cx="46.286" cy="139.612" rx="1.773" ry="1.739" fill="#EBEBEB"/><ellipse cx="57.269" cy="139.612" rx="1.773" ry="1.739" fill="#EBEBEB"/><ellipse cx="68.251" cy="139.612" rx="1.773" ry="1.739" fill="#EBEBEB"/><ellipse cx="79.233" cy="139.612" rx="1.773" ry="1.739" fill="#EBEBEB"/><ellipse cx="90.216" cy="139.612" rx="1.773" ry="1.739" fill="#EBEBEB"/><ellipse cx="101.198" cy="139.612" rx="1.773" ry="1.739" fill="#EBEBEB"/><ellipse cx="112.18" cy="139.612" rx="1.773" ry="1.739" fill="#EBEBEB"/><ellipse cx="123.163" cy="139.612" rx="1.773" ry="1.739" fill="#EBEBEB"/><ellipse cx="134.145" cy="139.612" rx="1.773" ry="1.739" fill="#EBEBEB"/><ellipse cx="145.127" cy="139.612" rx="1.773" ry="1.739" fill="#EBEBEB"/><ellipse cx="156.109" cy="139.612" rx="1.773" ry="1.739" fill="#EBEBEB"/><ellipse cx="167.092" cy="139.612" rx="1.773" ry="1.739" fill="#EBEBEB"/><ellipse cx="178.074" cy="139.612" rx="1.773" ry="1.739" fill="#EBEBEB"/><ellipse cx="189.056" cy="139.612" rx="1.773" ry="1.739" fill="#EBEBEB"/><ellipse cx="200.039" cy="139.612" rx="1.773" ry="1.739" fill="#EBEBEB"/><ellipse cx="211.021" cy="139.612" rx="1.773" ry="1.739" fill="#EBEBEB"/><ellipse cx="2.357" cy="149.408" rx="1.773" ry="1.739" fill="#EBEBEB"/><ellipse cx="13.34" cy="149.408" rx="1.773" ry="1.739" fill="#EBEBEB"/><ellipse cx="24.322" cy="149.408" rx="1.773" ry="1.739" fill="#EBEBEB"/><ellipse cx="35.304" cy="149.408" rx="1.773" ry="1.739" fill="#EBEBEB"/><ellipse cx="46.286" cy="149.408" rx="1.773" ry="1.739" fill="#EBEBEB"/><ellipse cx="57.269" cy="149.408" rx="1.773" ry="1.739" fill="#EBEBEB"/><ellipse cx="68.251" cy="149.408" rx="1.773" ry="1.739" fill="#EBEBEB"/><ellipse cx="79.233" cy="149.408" rx="1.773" ry="1.739" fill="#EBEBEB"/><ellipse cx="90.216" cy="149.408" rx="1.773" ry="1.739" fill="#EBEBEB"/><ellipse cx="101.198" cy="149.408" rx="1.773" ry="1.739" fill="#EBEBEB"/><ellipse cx="112.18" cy="149.408" rx="1.773" ry="1.739" fill="#EBEBEB"/><ellipse cx="123.163" cy="149.408" rx="1.773" ry="1.739" fill="#EBEBEB"/><ellipse cx="134.145" cy="149.408" rx="1.773" ry="1.739" fill="#EBEBEB"/><ellipse cx="145.127" cy="149.408" rx="1.773" ry="1.739" fill="#EBEBEB"/><ellipse cx="156.109" cy="149.408" rx="1.773" ry="1.739" fill="#EBEBEB"/><ellipse cx="167.092" cy="149.408" rx="1.773" ry="1.739" fill="#EBEBEB"/><ellipse cx="178.074" cy="149.408" rx="1.773" ry="1.739" fill="#EBEBEB"/><ellipse cx="189.056" cy="149.408" rx="1.773" ry="1.739" fill="#EBEBEB"/><ellipse cx="200.039" cy="149.408" rx="1.773" ry="1.739" fill="#EBEBEB"/><ellipse cx="211.021" cy="149.408" rx="1.773" ry="1.739" fill="#EBEBEB"/></svg>