<svg aria-hidden="true" style="position: absolute; width: 0; height: 0; overflow: hidden;" version="1.1" xmlns="http://www.w3.org/2000/svg" xmlns:xlink="http://www.w3.org/1999/xlink">
<defs>
<symbol id="design" viewBox="0 0 32 32">
<path d="M25.29 23.226v-1.032h5.161c0.854 0 1.548-0.695 1.548-1.548v-8.258c0-0.854-0.695-1.548-1.548-1.548h-14.451c-0.854 0-1.548 0.695-1.548 1.548v8.258c0 0.854 0.695 1.548 1.548 1.548h5.161v1.032h-8.774v-0.516c0-0.854-0.725-1.548-1.578-1.548h-1.746l-5.303-8.633c0.232-0.334 0.37-0.738 0.37-1.174 0-0.127-0.016-0.25-0.038-0.371l2.16-3.961c0.199 0.981 0.745 1.858 1.574 2.477l0.337 0.252 1.274-1.133c0.279 0.101 0.565 0.155 0.856 0.155 1.423 0 2.581-1.158 2.581-2.581 0-0.187-0.029-0.376-0.073-0.563l1.277-1.135-0.211-0.365c-0.738-1.274-2.107-2.066-3.574-2.066-0.097 0-0.193 0.008-0.288 0.014l-1.745-1.745-3.835 3.196 0.711 0.948-3.391 4.845c-0.986 0.155-1.744 1.003-1.744 2.031 0 0.774 0.433 1.442 1.065 1.795l4.268 8.011h-1.751c-0.854 0-1.518 0.695-1.518 1.548v0.516h-2.064v3.097h1.548v5.677h1.032v-5.677h1.032v5.677h1.032v-5.677h22.71v5.677h1.032v-5.677h1.032v5.677h1.032v-5.677h1.548v-3.097h-6.71zM15.484 12.387c0-0.284 0.232-0.516 0.516-0.516h14.451c0.284 0 0.516 0.232 0.516 0.516v6.71h-15.484v-6.71zM21.161 21.161h-5.161c-0.284 0-0.516-0.232-0.516-0.516v-0.516h15.484v0.516c0 0.284-0.232 0.516-0.516 0.516h-9.29zM24.258 22.194v1.032h-2.065v-1.032h2.065zM10.431 7.736l1.377-1.224c-0.138 0.658-0.694 1.163-1.377 1.224zM10.293 3.097c0.96-0 1.865 0.453 2.447 1.205l-4.613 4.101c-0.596-0.58-0.931-1.366-0.931-2.209 0-1.708 1.389-3.097 3.097-3.097zM8.196 1.731l0.614 0.614c-1.038 0.401-1.877 1.208-2.314 2.228l-0.657-0.877 2.358-1.965zM5.786 5.347l0.118 0.157-2.391 4.383c-0.177-0.175-0.385-0.315-0.614-0.417l2.887-4.124zM1.032 11.355c0-0.569 0.463-1.032 1.032-1.032s1.032 0.463 1.032 1.032c0 0.569-0.463 1.032-1.032 1.032s-1.032-0.463-1.032-1.032zM2.362 13.389c0.213-0.031 0.414-0.093 0.601-0.185l4.888 7.957h-1.348l-4.141-7.772zM3.583 22.194h7.226c0.284 0 0.546 0.232 0.546 0.516v0.516h-8.258v-0.516h-0c0-0.284 0.202-0.516 0.486-0.516zM30.968 25.29h-29.935v-1.032h29.935v1.032z"></path>
<path d="M14.968 8.774h16.516v1.032h-16.516v-1.032z"></path>
<path d="M22.193 0h-4.129v8.258h4.129v-8.258zM21.161 7.226h-2.065v-2.065h2.065v2.065zM21.161 4.129h-2.065v-3.097h2.065v3.097z"></path>
<path d="M20.645 6.194c0 0.285-0.231 0.516-0.516 0.516s-0.516-0.231-0.516-0.516c0-0.285 0.231-0.516 0.516-0.516s0.516 0.231 0.516 0.516z"></path>
<path d="M26.839 0h-4.129v8.258h4.129v-8.258zM23.742 1.032h2.065v3.097h-2.065v-3.097zM25.806 7.226h-2.065v-2.065h2.065v2.065z"></path>
<path d="M25.29 6.194c0 0.285-0.231 0.516-0.516 0.516s-0.516-0.231-0.516-0.516c0-0.285 0.231-0.516 0.516-0.516s0.516 0.231 0.516 0.516z"></path>
<path d="M31.484 0h-4.129v8.258h4.129v-8.258zM28.387 1.032h2.065v3.097h-2.065v-3.097zM30.451 7.226h-2.065v-2.065h2.065v2.065z"></path>
<path d="M29.935 6.194c0 0.285-0.231 0.516-0.516 0.516s-0.516-0.231-0.516-0.516c0-0.285 0.231-0.516 0.516-0.516s0.516 0.231 0.516 0.516z"></path>
</symbol>
<symbol id="architecture" viewBox="0 0 32 32">
<path d="M29.944 5.269v-3.598l1.234 0.925 0.617-0.822-2.365-1.773-2.365 1.774 0.617 0.822 1.234-0.925v3.598c0 1.417-1.153 2.57-2.57 2.57h-2.056c-1.627 0-3.003 1.028-3.447 2.57h-0.736l-0.019 1.028h0.603v1.602c-0.252-0.036-0.508-0.060-0.771-0.060-1.196 0-2.345 0.399-3.289 1.135-0.675-0.718-1.62-1.135-2.623-1.135-0.352 0-0.698 0.056-1.028 0.155v-3.24c0-1.701-1.383-3.084-3.084-3.084h-0.514v-1.028h-1.028v1.028h-1.542c-1.701 0-3.084 1.383-3.084 3.084v1.028c0 0.567-0.461 1.028-1.028 1.028h-1.028l0.925-1.234-0.822-0.617-1.773 2.364 1.774 2.365 0.822-0.617-0.925-1.234h1.028c1.134 0 2.056-0.922 2.056-2.056v-1.028c0-1.134 0.922-2.056 2.056-2.056h3.084c1.134 0 2.056 0.922 2.056 2.056v3.737c-0.224 0.156-0.432 0.336-0.617 0.541-0.387-0.111-0.784-0.166-1.182-0.166-2.205 0-4.036 1.631-4.325 3.778-1.834 0.542-3.129 2.247-3.129 4.19 0 0.91 0.286 1.799 0.812 2.536-0.198 0.505-0.298 1.034-0.298 1.577 0 2.409 1.96 4.369 4.369 4.369 0.195 0 0.386-0.017 0.574-0.042 0.036-0.005 0.071-0.011 0.106-0.016 0.19-0.030 0.377-0.069 0.559-0.123 0.707 0.457 1.517 0.696 2.359 0.696 0.942 0 1.84-0.297 2.585-0.846 0.81 1.17 2.133 1.874 3.584 1.874 1.348 0 2.589-0.608 3.415-1.649 0.676 0.408 1.44 0.62 2.24 0.62 2.409 0 4.369-1.96 4.369-4.369 0-0.52-0.092-1.028-0.273-1.514 0.831-0.819 1.302-1.933 1.302-3.112 0-0.262-0.026-0.52-0.071-0.771h0.071v-1.028h-0.393c-0.515-1.132-1.499-2.022-2.729-2.388-0.226-2.107-1.644-3.826-3.561-4.499v-1.852c0-1.417 1.153-2.57 2.57-2.57h2.056c1.984 0 3.598-1.615 3.598-3.598zM24.28 18.217l0.014 0.406 0.398 0.080c0.925 0.186 1.691 0.754 2.166 1.514v0.989h0.412c0.061 0.25 0.103 0.506 0.103 0.771 0 0.816-0.299 1.588-0.827 2.193-0.739-1.018-1.91-1.64-3.252-1.729l-0.067 0.962c1.708 0.113 3.050 1.344 3.112 3.317-0.062 1.788-1.532 3.225-3.335 3.225-0.748 0-1.458-0.245-2.053-0.709l-0.205-0.16c-0.633-0.577-1.022-1.377-1.080-2.25l-1.026 0.068c0.072 1.088 0.543 2.088 1.307 2.833-0.631 0.787-1.575 1.246-2.598 1.246-1.276 0-2.423-0.714-2.992-1.862l-0.317-0.639-0.506 0.503c-0.63 0.625-1.466 0.97-2.354 0.97-0.407 0-0.8-0.081-1.174-0.223 1.172-0.785 1.945-2.119 1.945-3.632 0-0.109-0.014-0.216-0.022-0.324 0.818-0.142 1.582-0.512 2.203-1.081l-0.695-0.758c-0.479 0.439-1.069 0.723-1.702 0.829-0.344-1.073-1.088-1.991-2.12-2.535l-0.479 0.91c1.103 0.581 1.787 1.715 1.787 2.959 0 1.442-0.921 2.671-2.204 3.138-0.181 0.065-0.364 0.115-0.549 0.149-0.012 0.002-0.025 0.004-0.037 0.006-0.184 0.031-0.368 0.049-0.552 0.049-1.842 0-3.341-1.499-3.341-3.341 0-0.495 0.109-0.975 0.325-1.43l0.141-0.296-0.21-0.253c-0.497-0.598-0.771-1.356-0.771-2.133 0-1.586 1.127-2.964 2.68-3.276l0.394-0.079 0.018-0.401c0.052-1.124 0.652-2.093 1.533-2.658v1.016h1.028v-1.449c0.248-0.059 0.505-0.093 0.771-0.093 0.397 0 0.794 0.073 1.176 0.218l0.368 0.139 0.23-0.318c0.008-0.011 0.017-0.020 0.025-0.031v2.562h1.028v-3.376c0.321-0.142 0.67-0.222 1.028-0.222 0.711 0 1.38 0.297 1.861 0.804-0.862 0.98-1.476 2.25-1.476 3.565 0 2.976 2.699 5.398 5.269 5.398v-1.028c-2.056 0-4.241-1.96-4.241-4.369 0-1.073 0.463-2.108 1.17-2.904l0.295-0.25c0.82-0.783 1.903-1.215 3.017-1.215 0.264 0 0.537 0.026 0.787 0.071v1.985c0 1.417-1.153 2.57-2.57 2.57h-0.514v1.028h0.514c1.984 0 3.598-1.615 3.598-3.598v-1.668c1.466 0.661 2.499 2.103 2.562 3.82z"></path>
<path d="M23.775 20.177h1.542v1.028h-1.542v-1.028z"></path>
<path d="M26.345 10.41h1.542v1.028h-1.542v-1.028z"></path>
<path d="M18.371 10.949l0.518-0.888c-0.371-0.217-0.686-0.525-0.91-0.893l-0.878 0.535c0.313 0.512 0.751 0.943 1.269 1.246z"></path>
<path d="M16.578 7.839v0c0 0.053 0.001 0.107 0.004 0.16l1.027-0.114-0.003-1.588h-1.028v1.542z"></path>
<path d="M16.578 3.213h1.028v1.542h-1.028v-1.542z"></path>
<path d="M29.632 19.861l0.495 0.901c0.525-0.289 0.975-0.708 1.301-1.213l-0.865-0.557c-0.233 0.361-0.555 0.662-0.931 0.869z"></path>
<path d="M30.972 17.606c0 0.061-0.002 0.121-0.007 0.181l1.026 0.071c0.006-0.084 0.009-0.168 0.009-0.253v-1.542h-1.028v1.542z"></path>
<path d="M23.261 10.41h1.542v1.028h-1.542v-1.028z"></path>
<path d="M31.876 13.072l-0.992 0.268c0.059 0.217 0.088 0.442 0.088 0.668v0.514h1.028v-0.514c0-0.316-0.042-0.631-0.124-0.936z"></path>
<path d="M31 11.523c-0.416-0.435-0.938-0.762-1.508-0.944l-0.313 0.979c0.407 0.131 0.78 0.364 1.078 0.676l0.743-0.71z"></path>
<path d="M16.578 1.671h1.028l1.234 0.925 0.617-0.822-2.365-1.774-2.365 1.774 0.617 0.822z"></path>
<path d="M8.353 2.699h1.028v1.542h-1.028v-1.542z"></path>
<path d="M8.353 11.952h1.028v1.542h-1.028v-1.542z"></path>
<path d="M8.353 8.867h1.028v1.542h-1.028v-1.542z"></path>
<path d="M8.353 18.12h1.028v1.542h-1.028v-1.542z"></path>
<path d="M8.867 1.285l1.748 1.311 0.617-0.822-2.365-1.774-2.365 1.774 0.617 0.822z"></path>
</symbol>
<symbol id="planning" viewBox="0 0 32 32">
<path d="M0.653 24.327h26.449c0.17-0 0.337-0.066 0.462-0.191l4.245-4.245c0.125-0.125 0.19-0.292 0.19-0.462h0.002v-16c0-0.361-0.292-0.653-0.653-0.653h-30.694c-0.361 0-0.653 0.292-0.653 0.653v20.245c0 0.361 0.292 0.653 0.653 0.653zM27.755 22.097v-2.015h2.015l-2.015 2.015zM1.306 4.082h29.388v14.694h-3.592c-0.361 0-0.653 0.292-0.653 0.653v3.592h-25.143v-18.939z"></path>
<path d="M22.857 6.041h-6.531c-0.361 0-0.653 0.292-0.653 0.653v0.98h-1.633c-0.361 0-0.653 0.292-0.653 0.653v4.898h-5.224v-2.286h3.592c0.361 0 0.653-0.292 0.653-0.653v-3.918c0-0.361-0.292-0.653-0.653-0.653h-7.837c-0.361 0-0.653 0.292-0.653 0.653v3.918c0 0.361 0.292 0.653 0.653 0.653h2.939v2.939c0 0.361 0.292 0.653 0.653 0.653h5.878v4.571c0 0.361 0.292 0.653 0.653 0.653h1.633v0.653c0 0.361 0.292 0.653 0.653 0.653h6.531c0.361 0 0.653-0.292 0.653-0.653v-3.265c0-0.361-0.292-0.653-0.653-0.653h-6.531c-0.361 0-0.653 0.292-0.653 0.653v1.306h-0.98v-3.918h0.98v0.653c0 0.361 0.292 0.653 0.653 0.653h6.531c0.361 0 0.653-0.292 0.653-0.653v-3.265c0-0.361-0.292-0.653-0.653-0.653h-6.531c-0.361 0-0.653 0.292-0.653 0.653v1.306h-0.98v-4.245h0.98v0.98c0 0.361 0.292 0.653 0.653 0.653h6.531c0.361 0 0.653-0.292 0.653-0.653v-3.265c0-0.361-0.292-0.653-0.653-0.653zM4.571 9.633v-2.612h6.531v2.612h-6.531zM16.98 17.796h5.224v1.959h-5.224v-1.959zM16.98 12.571h5.224v1.959h-5.224v-1.959zM22.204 9.306h-5.224v-1.959h5.224v1.959z"></path>
<path d="M3.265 16.163h4.898v1.306h-4.898v-1.306z"></path>
<path d="M3.265 18.122h4.898v1.306h-4.898v-1.306z"></path>
<path d="M3.265 20.082h8.49v1.306h-8.49v-1.306z"></path>
<path d="M8.816 16.163h1.306v1.306h-1.306v-1.306z"></path>
<path d="M24.816 6.041h1.633v1.306h-1.633v-1.306z"></path>
<path d="M27.429 6.041h1.633v1.306h-1.633v-1.306z"></path>
<path d="M24.816 8h1.633v1.306h-1.633v-1.306z"></path>
<path d="M27.429 8h1.633v1.306h-1.633v-1.306z"></path>
<path d="M24.816 9.959h1.633v1.306h-1.633v-1.306z"></path>
<path d="M27.429 9.959h1.633v1.306h-1.633v-1.306z"></path>
<path d="M24.816 11.918h1.633v1.306h-1.633v-1.306z"></path>
<path d="M27.429 11.918h1.633v1.306h-1.633v-1.306z"></path>
<path d="M31.553 26.646l-3.918-1.306c-0.067-0.022-0.137-0.033-0.206-0.033v-0.001h-26.776c-0.361 0-0.653 0.292-0.653 0.653v2.612c0 0.361 0.292 0.653 0.653 0.653h26.776c0.069 0 0.139-0.011 0.206-0.034l3.918-1.306c0.267-0.089 0.447-0.338 0.447-0.62s-0.18-0.531-0.447-0.62zM3.918 27.918h-2.612v-1.306h2.612v1.306zM26.776 27.918h-21.551v-1.306h21.551v1.306zM28.082 27.665v-0.8l1.2 0.4-1.2 0.4z"></path>
</symbol>
<symbol id="arrow" viewBox="0 0 24 24">
<path d="M15.422 16.594l-1.406 1.406-6-6 6-6 1.406 1.406-4.594 4.594z"></path>
</symbol>
</defs>
</svg>
